<svg id="Layer_1" data-name="Layer 1" xmlns="http://www.w3.org/2000/svg" viewBox="0 0 180 73.08"><path d="M135.74,30.06H122.26a.57.57,0,0,0-.53.54V73.3a.57.57,0,0,0,.53.54h5.61a.58.58,0,0,0,.53-.54V54.62h4.94a.57.57,0,0,0,.53-.53V48.48a.56.56,0,0,0-.53-.53H128.4V36.74h7.34a.58.58,0,0,0,.54-.54V30.6A.58.58,0,0,0,135.74,30.06Z" transform="translate(-1.12 -1.16)" style="fill:#fff"/><path d="M143.62,39.27H138a.57.57,0,0,0-.53.54V73.3a.57.57,0,0,0,.53.54h5.61a.58.58,0,0,0,.53-.54V39.81A.49.49,0,0,0,143.62,39.27Z" transform="translate(-1.12 -1.16)" style="fill:#fff"/><path d="M162,42.21a5.27,5.27,0,0,0-1.73-2.4,4.45,4.45,0,0,0-3.07-.94,5,5,0,0,0-2.8.8,7.65,7.65,0,0,0-1.74,1.87,16.94,16.94,0,0,0-.93,2.4v.14l-.54-4.41a.56.56,0,0,0-.53-.53h-4.27a.57.57,0,0,0-.54.53v33.5a.58.58,0,0,0,.54.54h5.47a.57.57,0,0,0,.53-.54V51.68a13.06,13.06,0,0,1,.67-4.8c.54-1.07,1.07-1.2,1.6-1.2s1.2.13,1.34,1.33A42.41,42.41,0,0,1,156.3,52V73.3a.57.57,0,0,0,.53.54h5.47a.57.57,0,0,0,.53-.54V49a29.83,29.83,0,0,0-.13-3.47A11.2,11.2,0,0,0,162,42.21Z" transform="translate(-1.12 -1.16)" style="fill:#fff"/><path d="M180.45,28.19H175a.57.57,0,0,0-.53.54V42.07c-.14-.13-.14-.4-.27-.53a4.66,4.66,0,0,0-4.4-2.67,4.65,4.65,0,0,0-3.07.94,6,6,0,0,0-1.74,2.4,11.12,11.12,0,0,0-.8,3.2,33.54,33.54,0,0,0-.27,3.6V64.1a33.54,33.54,0,0,0,.27,3.6,11.11,11.11,0,0,0,.93,3.2,6.09,6.09,0,0,0,1.74,2.4,3.84,3.84,0,0,0,2.67.94,4.31,4.31,0,0,0,3.2-1.34,9.42,9.42,0,0,0,2-2.93c.27-.8.54-1.47.8-2.27l.27,5.6a.58.58,0,0,0,.53.54h4.28a.58.58,0,0,0,.53-.54V28.73A.88.88,0,0,0,180.45,28.19Zm-6.14,32a14.74,14.74,0,0,1-.4,3.6,10.36,10.36,0,0,1-.8,2.67c-.4.8-.93.8-1.07.8-.4,0-.8-.4-1.06-1.34a20.86,20.86,0,0,1-.54-4.93V51.82a24,24,0,0,1,.4-4.94c.27-1.2.94-1.34,1.47-1.34s1.07.14,1.47,1.21a16.49,16.49,0,0,1,.53,5.33v4.41h.14A35.89,35.89,0,0,1,174.31,60.23Z" transform="translate(-1.12 -1.16)" style="fill:#fff"/><path d="M42.58,4.12H33.7c-.42,0-.64.21-.85.63L24,41.56c-.85,3.18-1.27,5.93-1.7,8.47a61.37,61.37,0,0,0-1.48-7.83L11.7,4.75c0-.42-.43-.63-.85-.63H2A.91.91,0,0,0,1.12,5V72.66a.91.91,0,0,0,.85.85h8.88a.91.91,0,0,0,.85-.85v-19a41,41,0,0,0-.21-5.07c.42,1.69.63,3.38,1,5.07L17,72.88c0,.42.42.63.84.63h8.89c.42,0,.63-.21.84-.63L32,53.62c.42-1.69.63-3.17,1.05-5.07,0,1.69-.21,3.59-.21,5.07v19a.91.91,0,0,0,.85.85h8.88a.91.91,0,0,0,.85-.85V5A.91.91,0,0,0,42.58,4.12Z" transform="translate(-1.12 -1.16)" style="fill:#fff"/><path d="M64,51.72a.9.9,0,0,0-.84.85v5.71a14.67,14.67,0,0,1-.43,3.38,2.61,2.61,0,0,1-1.06,1.7c-.42.42-1,.42-1.9.42a3,3,0,0,1-3.17-2.12c-.64-1.69-.85-4.44-.85-8.25A31.75,31.75,0,0,0,55.28,49a11.05,11.05,0,0,0-.43-1.48c.22,0,.43.21.64.21a22.42,22.42,0,0,0,6.35.63H72.63a.9.9,0,0,0,.84-.84V35.43c0-11.85-4.65-17.77-13.75-17.77-9.52,0-14.39,5.92-14.39,17.77V56.16c0,11.85,4.87,17.77,14.39,17.77,5.08,0,8.67-1.48,10.79-4.65,2.12-3,3.17-7.41,3.17-13.12V52.35a1.79,1.79,0,0,0-1.05-.63Zm-7.4-21.37a2.66,2.66,0,0,1,2.75-2.11c1.27,0,2.11.63,2.75,2.11.63,1.69.84,4.66.84,8.46H55.7C55.7,34.8,55.91,32,56.55,30.35Z" transform="translate(-1.12 -1.16)" style="fill:#fff"/><path d="M102,1.16H93.36a.9.9,0,0,0-.85.84V23.16c-.21-.21-.21-.64-.42-.85a7.08,7.08,0,0,0-2.54-3,7,7,0,0,0-4.44-1.27,7.46,7.46,0,0,0-4.87,1.48,9.87,9.87,0,0,0-2.75,3.81,17.92,17.92,0,0,0-1.27,5.08,52.21,52.21,0,0,0-.42,5.71V58.07a52.4,52.4,0,0,0,.42,5.71,18.09,18.09,0,0,0,1.48,5.08,9.76,9.76,0,0,0,2.75,3.8,6.09,6.09,0,0,0,4.23,1.48A6.87,6.87,0,0,0,89.76,72a14.91,14.91,0,0,0,3.17-4.66c.43-1.26.85-2.32,1.27-3.59l.43,8.88a.9.9,0,0,0,.84.85h6.77a.91.91,0,0,0,.85-.85V2A1.41,1.41,0,0,0,102,1.16ZM92.3,51.93a23.7,23.7,0,0,1-.63,5.71,17.09,17.09,0,0,1-1.27,4.23c-.64,1.27-1.49,1.27-1.7,1.27-.63,0-1.27-.63-1.69-2.11a33.68,33.68,0,0,1-.85-7.83V38.6a37.43,37.43,0,0,1,.64-7.82c.42-1.91,1.48-2.12,2.33-2.12.63,0,1.69.21,2.32,1.9C92.09,32,92.3,35,92.3,39v7h.21C92.51,47.7,92.51,49.82,92.3,51.93Z" transform="translate(-1.12 -1.16)" style="fill:#fff"/><rect x="104.51" y="17.56" width="10.58" height="54.79" rx="0.85" style="fill:#fff"/><path d="M108.38,16.39l2.11-4.87.22-.63L112.82,6a5.62,5.62,0,0,0-6.77,2.75.78.78,0,0,0-.21.43c0,.21,0,.21-.21.42A5.6,5.6,0,0,0,108.38,16.39Z" transform="translate(-1.12 -1.16)" style="fill:#fff"/><path d="M113.46,6.45l-2.12,4.86-.21.64L109,16.81a5.6,5.6,0,0,0,6.77-2.75.73.73,0,0,0,.21-.42c0-.21,0-.21.22-.42A5.53,5.53,0,0,0,113.46,6.45Z" transform="translate(-1.12 -1.16)" style="fill:#fff"/><path d="M164.33,34.82l-5.17-7.11a15.21,15.21,0,0,0,2.05-20.18,15.22,15.22,0,0,0-27.34,6.57A15.16,15.16,0,0,0,156.4,29.68l5.18,7.13a1.7,1.7,0,1,0,2.75-2Zm-17.28-6.66A11.85,11.85,0,1,1,155.9,26l-.06,0,0,0A11.74,11.74,0,0,1,147.05,28.16Z" transform="translate(-1.12 -1.16)" style="fill:#fff"/></svg>