<svg
  xmlns="http://www.w3.org/2000/svg"
  fill="none"
  viewBox="0 0 430 430"
>
  <g stroke-linecap="round" stroke-linejoin="round" stroke-width="4">
    <path
      stroke="#0894ff"
      d="m118.87 158.69-8.65-8.96c-6.17-6.39-6-16.58.4-22.75l17.91-17.3c6.39-6.17 16.58-6 22.75.4l8.65 8.96m118.05 204.42-30.23-31.31m41.07-39.65 30.23 31.31M70 67l49.57 51.33m157.08 206.42 43.74-42.24c10.6-10.24 27.5-9.94 37.73.66l1.29 1.34-82.13 79.31-1.29-1.34c-10.24-10.59-9.95-27.49.66-37.73"
    />
    <path
      stroke="#64748b"
      d="m171.15 151.2 20.53-19.83m.95 42.07 20.53-19.83m.95 42.07 20.53-19.83m.95 42.08 20.53-19.83m.95 42.07 20.53-19.83m21.48 22.25-61.6 59.49L108.6 168.61l61.6-59.49z"
    />
  </g>
</svg>