<svg
  xmlns="http://www.w3.org/2000/svg"
  fill="none"
  viewBox="0 0 430 430"
>
  <g
    stroke-linecap="round"
    stroke-linejoin="round"
    stroke-miterlimit="10"
    stroke-width="4"
  >
    <path
      stroke="#0894ff"
      d="M193.72 76.63c15.52 7.85 25.24 22.09 26.39 36.31-12.14 7.5-29.36 8.13-44.89.27-15.54-7.86-25.24-22.1-26.4-36.32 12.15-7.5 29.37-8.11 44.9-.26"
    />
    <path
      stroke="#64748b"
      d="M214.92 158.11c-.91-2.28-8.67-22.74 3.26-42.22 9.09-14.84 26.1-23.39 44-22.18"
    />
    <path
      stroke="#64748b"
      d="M347.86 242.86c0 24.85-7.36 49.99-20.77 71.18-13.56 21.44-34.44 43.99-61.67 43.99-7.96 0-15.52-1.78-22.28-4.96-1.89-1.2-3.86-2.29-5.9-3.24-6.77-3.19-14.33-4.97-22.31-4.97-7.92 0-15.42 1.75-22.16 4.9a53 53 0 0 0-6.16 3.38 52.2 52.2 0 0 1-22.13 4.89c-25.28 0-45.4-20.01-59-39.7C90.22 296.23 82 269.71 82 242.86c0-42.18 21.91-100.6 71.98-100.6 5.28 0 10.4.69 15.27 1.99 4.88 1.3 8.28 2.87 9.69 3.5 9.74 4.38 23.5 10.57 36.98 10.36 13.01-.19 26.41-6.35 34.66-10.14 1.36-.62 4.48-2.1 8.97-3.4 0 0 8.05-2.31 16.46-2.31 49.7 0 71.85 58.98 71.85 100.6"
    />
    <path
      stroke="#64748b"
      d="M151.93 178.77c-4.88 2.92-14.49 9.58-21.5 21.87-9.14 16.02-8.12 31.51-7.5 37"
    />
  </g>
</svg>