<svg
  xmlns="http://www.w3.org/2000/svg"
  fill="none"
  viewBox="0 0 430 430"
>
  <g
    stroke-linecap="round"
    stroke-linejoin="round"
    stroke-miterlimit="10"
    stroke-width="4"
  >
    <path
      stroke="#64748b"
      d="M85 120H50c-16.568 0-30 13.431-30 30v50c0 46.064 36.642 83.57 82.369 84.96M345 120h35c16.569 0 30 13.431 30 30v50c0 46.064-36.641 83.57-82.368 84.96"
    />
    <path
      stroke="#0894ff"
      d="m85 120 130-40 130 40v100c0 71.797-58.203 130-130 130S85 291.797 85 220z"
    />
    <path
      stroke="#0894ff"
      d="M343.394 240.494 215 280 86.606 240.494M85 195l130-40 130 40"
    />
  </g>
</svg>