<svg
  xmlns="http://www.w3.org/2000/svg"
  fill="none"
  viewBox="0 0 430 430"
>
  <g
    stroke-linecap="round"
    stroke-linejoin="round"
    stroke-miterlimit="10"
    stroke-width="4"
  >
    <path
      stroke="#64748b"
      d="m133.2 172.799 20.4 51.7 9.6 24.2m28.4 72.001-8-20.2"
    />
    <path
      stroke="#64748b"
      d="m180.7 219.8-26.4 3.5-.7 1.2-19.3 35.2-33.5 61h90.8L289 205.4l-65.1 8.6m51.9-136.5 8.7 13.9c1.7 2.8 5.4 3.6 8.2 1.9l23.2-14.5c9.3-5.8 12.2-18.1 6.4-27.4l-1.3-2.1c-5.8-9.3-18.1-12.2-27.4-6.4L282.2 50c-9.3 5.9-12.2 18.2-6.4 27.5"
    />
    <path
      stroke="#64748b"
      d="M100.7 390.599c38.494 0 69.7-31.206 69.7-69.7s-31.206-69.7-69.7-69.7-69.7 31.206-69.7 69.7 31.206 69.7 69.7 69.7"
    />
    <path
      stroke="#64748b"
      d="M57.2 320.9c0 24.1 19.5 43.6 43.6 43.6m185.4-43.6c0 24.1 19.5 43.6 43.6 43.6"
    />
    <path
      stroke="#64748b"
      d="M329.7 390.599c38.494 0 69.7-31.206 69.7-69.7s-31.206-69.7-69.7-69.7-69.7 31.206-69.7 69.7 31.206 69.7 69.7 69.7M310 187.6h7.3c8.7 10.4-.8 24-.8 24"
    />
    <path
      stroke="#64748b"
      d="m286.3 197.799 2.7 7.6 17.5 49.7 23.2 65.8m-181.8-148.1h-38.7m80.7-10.999 28 38.8c7.6 7.5 8.1 19.6 1.1 27.6L190 273s10.3 25.8-2 31.2l-38.5-33.1L183 216l-34-49c-1-2.1-11.2-23.1-.2-42.1 4.5-7.7 10.7-12.1 14.7-14.4"
    />
    <path
      stroke="#0894ff"
      d="M265.2 97.3c-.5-1.8-1.2-3.6-2.1-5.3-4.8-9.4-14-15-23.9-15.7-.3 0-6.6-.6-14.9 3.1l-60.7 31 26.3 51.3.1-.1 54.3-27.8"
    />
    <path
      stroke="#0894ff"
      d="m265.2 97.299 11 45.7 33.9 44.6s-12 18.9-30.1 7.2l-30-39.6-15.2-55.8"
    />
  </g>
</svg>