<svg
  xmlns="http://www.w3.org/2000/svg"
  fill="none"
  viewBox="0 0 430 430"
>
  <g
    stroke-linecap="round"
    stroke-linejoin="round"
    stroke-miterlimit="6"
    stroke-width="4"
  >
    <path
      stroke="#64748b"
      d="M214.4 298.2c-17.6 28-49.4 47.5-86.8 49.5-38 2-72.3-14.6-92.6-41.3 12.9-21.3 34-37.9 59.5-45.9m241.4-.1c25.6 8 46.7 24.6 59.6 45.9-20.3 26.7-54.6 43.3-92.6 41.3-37.3-2-69.2-21.6-86.8-49.5"
    />
    <path
      stroke="#0894ff"
      d="M217.4 297.3c36.3 9.9 76.6 1.9 106.8-24.9q6.45-5.7 11.7-12c22.3-26.3 31-60.7 25.6-93.3-28.8-8.4-60.3-5.5-87.5 9.2m-117.6.1c-27.1-14.7-58.7-17.7-87.5-9.2-5.4 32.6 3.3 66.9 25.6 93.3q5.25 6.3 11.7 12c30.2 26.8 70.6 34.8 106.8 24.9"
    />
    <path
      stroke="#64748b"
      d="M274.1 176.4c-4.5-39.4-26.9-73.3-58.9-93.4-32 20.1-54.4 54-58.9 93.4-.5 4.8-.8 9.6-.8 14.5 0 29.2 9.8 56.1 26.4 77.6 8.7 11.3 19.2 21 31.1 28.9.4.3.8.6 1.3.8l.9.6.9-.6c.4-.3.9-.5 1.3-.8 11.9-7.8 22.5-17.6 31.1-28.9 16.5-21.5 26.4-48.4 26.4-77.6 0-4.9-.3-9.8-.8-14.5"
    />
  </g>
</svg>