<svg id="Layer_1" data-name="Layer 1" xmlns="http://www.w3.org/2000/svg" viewBox="0 0 442.7 277.58">
  <path
    d="M454.16,246.71a42.91,42.91,0,0,1-8.88,27.07A41.87,41.87,0,0,1,418.55,290a44,44,0,0,1-7.69.57H107.29c0-.08,0-.15-.05-.24l5.82-2.41,65.38-26.6L246,233.77l59.91-24.42q15.92-6.48,31.82-13a3.53,3.53,0,0,1,2.69-.11,73.82,73.82,0,0,0,18.6,4,60.88,60.88,0,0,0,27.43-3.72,48.55,48.55,0,0,0,16.59-10.56c.27-.26.53-.52.79-.81,1.5-1.58,1.5-1.83,0-3.46q-3.51-3.93-7-7.87c-.28-.31-.53-.63-.93-1.12L454.15,149v1.78Q454.15,198.72,454.16,246.71Z"
    transform="translate(-11.46 -12.99)" style="fill:#64748b" />
  <path
    d="M437.13,13.22c-.35.25-.68.5-1,.74L384.58,46.55,337.82,76.14a16.24,16.24,0,0,1-2.12,1.08c-10.34,4.52-19.07,11.07-25.64,20.35a59.49,59.49,0,0,0-9.78,23.53,78,78,0,0,0-1.34,16.78c.27,10.11,2.19,19.88,6.8,29a57.05,57.05,0,0,0,22.47,23.73l1.56.94a1.27,1.27,0,0,1,.18.24c-.35.18-.68.38-1,.54l-42,17.08-84.72,34.51-76.67,31.23Q107.31,282.59,89,290a6.5,6.5,0,0,1-2.29.5c-9.23,0-18.46,0-27.69,0h-1c.25-.68.8-.87,1.22-1.15l40.27-28.45q44.35-31.32,88.71-62.65a3.63,3.63,0,0,1,2.2-.68q16.17,0,32.33,0a77.87,77.87,0,0,0,27.78-4.77,56.4,56.4,0,0,0,26.24-19.46,57.28,57.28,0,0,0,9.81-22.62,81.25,81.25,0,0,0,1.2-22.23,70.39,70.39,0,0,0-4.22-20.12c-5-13.19-14.07-22.57-26.85-28.4a69.9,69.9,0,0,0-19.46-5.65c-3.57-.5-7.16-.77-10.74-1.15L224.46,73c.61-.69,1-1.14,1.41-1.58Q252.95,42.74,280,14.09a3.18,3.18,0,0,1,2.56-1.1q76.6,0,153.2,0H437Z"
    transform="translate(-11.46 -12.99)" style="fill:#64748b" />
  <path
    d="M270.84,13c0,.68-.51,1-.84,1.3q-8.38,8.9-16.79,17.78-18.72,19.82-37.42,39.65a3.62,3.62,0,0,1-2.9,1.25c-10.73,0-21.46,0-32.19,0a10.46,10.46,0,0,0-1.12,0,1.36,1.36,0,0,0-1.51,1.46c0,.56,0,1.13,0,1.69V194.58a6.28,6.28,0,0,0,0,1,1.94,1.94,0,0,1-1.07,2q-52.47,37-104.9,74-12.86,9.08-25.7,18.17a3.72,3.72,0,0,1-2.34.73c-3.13,0-6.27,0-9.41,0-.32,0-.64,0-1.26-.08.47-.56.75-.93,1.05-1.28L83.75,234q14.79-16.56,29.54-33.16a3,3,0,0,1,3.15-1.09,67.09,67.09,0,0,0,16,.5A56.69,56.69,0,0,0,150,195.84a48.32,48.32,0,0,0,15.11-10.06c.36-.37.73-.74,1.06-1.12.93-1.07,1-1.46,0-2.54q-4.14-4.67-8.32-9.34l-5.89-6.6c-.25-.27-.49-.57-.77-.82a1.22,1.22,0,0,0-1.77-.12c-.34.24-.65.54-1,.81A38.85,38.85,0,0,1,128,174.91c-13.06,1.55-23.46-3.32-31.34-13.67a37.8,37.8,0,0,1-7.14-17.79A46.89,46.89,0,0,1,90.73,123c3.3-11.08,10-19.23,20.73-23.89a32.24,32.24,0,0,1,17.87-2.22,36,36,0,0,1,17.5,7.39c1.08.87,1.55.82,2.49-.22q7.37-8.22,14.7-16.47c.95-1.07.95-1.52-.06-2.64A34,34,0,0,0,155.17,78a51.54,51.54,0,0,0-17.73-5.94,68.84,68.84,0,0,0-12.17-.81,73.14,73.14,0,0,0-34.82,9.56l-1.09.58c.17-.57.26-.94.4-1.28q10-26.43,20.1-52.86c1.65-4.33,3.3-8.67,5-13,.5-1.3.52-1.3,1.92-1.3Z"
    transform="translate(-11.46 -12.99)" style="fill:#64748b" />
  <path
    d="M454.14,13.88V140.47a6.08,6.08,0,0,1-.1.81c-2,.81-3.93,1.63-5.92,2.44l-55.61,22.66a6.29,6.29,0,0,0-.65.26,1.28,1.28,0,0,1-1.72-.36c-1.68-1.81-1.69-1.76-3.59-.21a38.51,38.51,0,0,1-20.47,8.84c-14.46,1.58-25.4-4.27-33.1-16.38a38.73,38.73,0,0,1-5.61-17.06,45.66,45.66,0,0,1,2.33-21.15C334,109,341.78,101.14,353.55,97.77c9.43-2.7,18.45-1.11,27,3.55a36.59,36.59,0,0,1,4.07,2.73c1.57,1.15,1.79,1.17,3.13-.32,3.34-3.72,6.67-7.47,10-11.21,1.44-1.61,2.88-3.2,4.3-4.82,1.05-1.18,1.06-1.6,0-2.77a36.1,36.1,0,0,0-10.91-8,52.4,52.4,0,0,0-15.75-4.82,70.77,70.77,0,0,0-13.16-.77,30.74,30.74,0,0,1-3.48,0c.34-.22.67-.47,1-.7l47.7-30.19c13.89-8.8,27.79-17.56,41.64-26.4a6.52,6.52,0,0,1,4.71-1,1.64,1.64,0,0,1,.16.13.17.17,0,0,1,.06.12A2.65,2.65,0,0,1,454.14,13.88Z"
    transform="translate(-11.46 -12.99)" style="fill:#64748b" />
  <path
    d="M107.65,13c-.2.62-.32,1.1-.5,1.55q-6.83,18-13.67,35.94Q86.16,69.69,78.83,88.91a5,5,0,0,1-1,1.64,57.7,57.7,0,0,0-15.1,28.07,83.49,83.49,0,0,0-1.91,16.29,8.37,8.37,0,0,1-.49,2.58q-15,39.63-30.14,79.23l-18,47.36c-.15.38-.31.77-.46,1.16h-.24v-1.38q0-103.7,0-207.39c0-15.94,7-28.37,20.41-37a38.08,38.08,0,0,1,16.51-5.9A63.27,63.27,0,0,1,55.72,13c16.77,0,33.54,0,50.32,0Z"
    transform="translate(-11.46 -12.99)" style="fill:#64748b" />
  <path
    d="M106.55,197.68c-.48.55-.88,1-1.3,1.5L82,225.28Q53.32,257.34,24.7,289.4a3,3,0,0,1-2.52,1.17c-3-.08-6,0-9,0H11.54a16.82,16.82,0,0,1,.72-6.87q14.15-36.93,28.16-73.94,10.71-28.12,21.41-56.24c.15-.39.33-.76.61-1.39.19.73.33,1.19.45,1.67,4.63,18.56,15.79,31.71,33,39.88a61.67,61.67,0,0,0,9.84,3.69C105.94,197.41,106.14,197.52,106.55,197.68Z"
    transform="translate(-11.46 -12.99)" style="fill:#64748b" />
  <path
    d="M259.34,140a46.11,46.11,0,0,1-2.26,11.39,27.25,27.25,0,0,1-16.49,17.29,46.61,46.61,0,0,1-12.81,2.9c-6.83.66-13.67.31-20.5.39-1.47,0-1.66-.23-1.7-1.74,0-.43,0-.86,0-1.28V101.42c0-.46,0-.94,0-1.39,0-1.25.35-1.52,1.63-1.58.28,0,.56,0,.84,0h9.14v-.1c3.18.12,6.37.12,9.54.37A41.73,41.73,0,0,1,242.9,103c8.36,4.32,13.35,11.22,15.5,20.28A53.55,53.55,0,0,1,259.34,140Z"
    transform="translate(-11.46 -12.99)" style="fill:#64748b" />
</svg>