<svg id="Layer_1" data-name="Layer 1" xmlns="http://www.w3.org/2000/svg" viewBox="0 0 16 12.15">
  <path
    d="M5.62,8.37a1.44,1.44,0,0,0,.57-.13,1.22,1.22,0,0,0,.49-.42l1.7-2.61V9.33l0,.08h0l0,.1,0,0a1.21,1.21,0,0,0,0,.14,1,1,0,0,0,0,.14v0l0,.12v0s0,.07,0,.1v.14h0s0,0,0,.05l0,.43v.06h0l0,.09v0l0,0,.41.26a1.59,1.59,0,0,0,.5.08,1.74,1.74,0,0,0,.45-.06A1.64,1.64,0,0,0,11,10.43h0a.82.82,0,0,0,.06-.48.29.29,0,0,0,0-.09.42.42,0,0,1,0-.1.8.8,0,0,1,0-.26,1.09,1.09,0,0,1,0-.26l0-.16,0,0L10.93,9l0,0L10.8,8.9l0,0-.08-.06,0,0,0,0-.06,0,0,0-.08-.07,0,0-.07-.06v0h0l-.06-.07-.1-.11,0,0a.7.7,0,0,0-.06-.09l0,0A.35.35,0,0,1,10,8.1h0L9.93,8l0,0-.05-.08,0,0,0-.08,0,0,0-.08,0-.07,0-.07v0a.36.36,0,0,1,0-.09v0l0-.09a.41.41,0,0,1,0-.08l0-.06L9.5,7V6.91s0-.06,0-.08l0-.14V6.55l0-.14V6s0,0,0-.07V5.75l0-.07a.15.15,0,0,1,0-.07.2.2,0,0,1,0-.07s0,0,0-.07a.11.11,0,0,0,0,0v0l0-.1a.53.53,0,0,1,.5-.4l.57-2.31a1.12,1.12,0,0,1,.71-.78V1.26a1.09,1.09,0,0,0-.47-1,1.86,1.86,0,0,0-1-.27A3.37,3.37,0,0,0,9,.09a1.49,1.49,0,0,0-.68.38,5,5,0,0,0-.62.75L5.66,4.47,3.58,1.22A3.33,3.33,0,0,0,3,.47,1.49,1.49,0,0,0,2.29.09,3.34,3.34,0,0,0,1.46,0a1.82,1.82,0,0,0-1,.27,1.06,1.06,0,0,0-.49,1v10a.75.75,0,0,0,.52.7,2.26,2.26,0,0,0,.94.19,2.32,2.32,0,0,0,1-.19.75.75,0,0,0,.5-.7V5.12L4.61,7.83a1.2,1.2,0,0,0,.48.42A1.31,1.31,0,0,0,5.62,8.37ZM1.77,11.8a1.42,1.42,0,0,1-.3,0h0a1.46,1.46,0,0,1-.94-.28.47.47,0,0,1-.15-.36V8.79a.18.18,0,0,1,.21-.18.18.18,0,0,1,.15.19v2.39h0c0,.16.33.29.73.3l.28,0a.17.17,0,1,1,.05.33Zm2.4-8.67a.17.17,0,0,1-.25-.06L3.08,1.74a.17.17,0,0,1,0-.1.16.16,0,0,1,.09-.15.18.18,0,0,1,.25.05l.84,1.34A.19.19,0,0,1,4.17,3.13Z"
    style="fill:#089cff" />
  <path
    d="M15.42,3h0a.57.57,0,1,0-.09.38h0a.38.38,0,0,1,.28.47L15,6.44l-.19-.05a.19.19,0,0,0-.23.14l0,.09A1.85,1.85,0,0,1,12.5,8h0a.57.57,0,0,1-.18,0l-.19-.06-.05,0A1.84,1.84,0,0,1,11,5.71l0-.07a.2.2,0,0,0-.14-.23l-.19,0,.11-.42L11,3.79l.1-.41.17-.64v0a.39.39,0,0,1,.46-.25h0a.58.58,0,1,0,.71-.62.59.59,0,0,0-.62.24h0a.77.77,0,0,0-.56.07.79.79,0,0,0-.38.49L10.66,3.7l-.38,1.52v0l-.19,0a.19.19,0,0,0-.23.14l0,.1v.08a.19.19,0,0,0,0,.07s0,0,0,.06,0,0,0,.07,0,0,0,.06,0,0,0,.07v.06a.17.17,0,0,0,0,.07v.38s0,0,0,.07v.06a.17.17,0,0,1,0,.07.11.11,0,0,1,0,0s0,0,0,.08v0s0,0,0,.08v0a.24.24,0,0,0,0,.08V7l0,.08v0l0,.08s0,0,0,0l0,.08,0,0,0,.08,0,0,0,.09s0,0,0,0l0,.09,0,0a.41.41,0,0,0,0,.09v0l.06.08v0l.06.07,0,0,.06.07,0,0,.06.07,0,0a.46.46,0,0,0,.07.07l0,0,.07.07,0,0,.07.07,0,0,.07.06,0,0,.07,0,0,0,.08.06,0,0,.08.05,0,0,.08,0h0l.11.06,0,.09-.08.34a.44.44,0,0,0,0,.16.41.41,0,0,0,0,.16l0,.07h0a1.09,1.09,0,0,1,0,.17,1.16,1.16,0,0,1-.1.68h0l0,.08a2,2,0,0,1-1.34,1,2.06,2.06,0,0,1-1.16,0l0,0-.38-.25-.15-.09-.13-.09,0,0a1.15,1.15,0,0,0,.06-.17l0-.07,0-.09h0l0-.21,0-.22h0s0,0,0,0v-.07s0-.05,0-.08v0a.43.43,0,0,0,0-.11h0a.56.56,0,0,0,0-.12.56.56,0,0,0,0-.12v0l0-.08h0A1,1,0,0,0,8,9.34,1.38,1.38,0,0,0,7.71,9a1.72,1.72,0,0,0-2.39.13l0,0a1.66,1.66,0,0,0-.22.32,1.71,1.71,0,0,0,2.78,2l0,0h0l.66.43A.8.8,0,0,0,8.8,12h0l.07,0H9l.08,0h.56a2.14,2.14,0,0,0,.43-.07,2.6,2.6,0,0,0,1.23-.65,1.9,1.9,0,0,0,.61-1.14h0c0-.06,0-.14,0-.23h0a.58.58,0,0,0,.48-.43l.11-.43a3,3,0,0,0,3.07-2.36.19.19,0,0,0-.14-.23l-.19,0L16,3.91A.79.79,0,0,0,15.42,3Zm-.43.1a.19.19,0,0,1-.23.14A.2.2,0,0,1,14.62,3a.19.19,0,0,1,.23-.14A.19.19,0,0,1,15,3.07Zm-2.81-.7a.21.21,0,0,1,.24-.15.2.2,0,0,1,.14.24.2.2,0,0,1-.24.14A.2.2,0,0,1,12.18,2.37ZM7.79,10.78l0,.11-.06.1,0,.09-.07.09-.07.07A1.29,1.29,0,0,1,5.38,9.86a1.17,1.17,0,0,1,.22-.37v0a1.29,1.29,0,0,1,1.82-.12,1.16,1.16,0,0,1,.29.37l.06.12,0,.05,0,.1s0,0,0,0a.52.52,0,0,1,0,.11s0,0,0,0v.16A1.31,1.31,0,0,1,7.79,10.78Zm4.05-2.1a.14.14,0,0,0-.09-.08,3.21,3.21,0,0,1-.45-.24,2.61,2.61,0,0,1-1.12-2.72l.37.1a2.24,2.24,0,0,0,.75,2.14,2.22,2.22,0,0,0,.65.38Zm.61.09a.25.25,0,0,0-.15.05l.11-.44a2.21,2.21,0,0,0,2.44-1.57l.38.09A2.61,2.61,0,0,1,12.45,8.77Z"
    style="fill:#089cff" />
  <path
    d="M7.22,10.42a.19.19,0,0,0,.14.36.2.2,0,0,0,.09-.06h0a.36.36,0,0,0,0-.11.31.31,0,0,0,0-.08A.19.19,0,0,0,7.22,10.42Z"
    style="fill:#089cff" />
  <path
    d="M7.18,11.05A.15.15,0,0,0,7,11a.74.74,0,0,1-.55.12A.77.77,0,0,1,6,10.85a.14.14,0,0,0-.18,0h0a.14.14,0,0,0,0,.2,1.11,1.11,0,0,0,.65.38,1,1,0,0,0,.55-.06.73.73,0,0,0,.2-.1.14.14,0,0,0,0-.19Z"
    style="fill:#089cff" />
</svg>