<svg id="Layer_1" data-name="Layer 1" xmlns="http://www.w3.org/2000/svg" viewBox="0 0 2426.48 975.97"><polygon points="158.77 562.53 578.99 562.53 578.99 678.65 270.27 678.65 267.02 680.37 267.02 975.91 154.34 975.91 154.34 562.5 158.77 562.53" style="fill:#64748b;fill-rule:evenodd"/><path d="M942.82,423.15V727.56l9.73-.25h80.38l4.47-.06c117.91-2.38,212.74-98.36,212.74-216.41,0-118.69-95.79-215.06-214.54-216.49h-729l-2.82.06V420.8l.09,2.27,311.06.11.31,116.12-422.87-.08-1.28-.08,0-359,843.62-.1,1.79-.79c182.1,1.7,329.16,149.35,329.16,331.22,0,182.14-147.53,329.94-330.08,331.18l-2.91-.13-206.38-.2V423.15Z" transform="translate(-36.76 -23.42)" style="fill:#64748b;fill-rule:evenodd"/><path d="M1037.45,998.22l-4.5,0H661.37V883.46l.48-460.33h116.5V883.46l0,.91H1033l2.67.08C1241.91,883,1408.69,715.92,1408.69,510c0-205.56-166.32-372.48-372.16-374.41l-3.58.09-883.49,0,0,863.67H36.76l0-975.83L1033,23.42h4.5c236.91,2.14,433.58,166.72,476.1,391L1750,28h130.76L1475.26,707.23l-39.34,66.47C1348.7,901.52,1203.91,996.71,1037.45,998.22Z" transform="translate(-36.76 -23.42)" style="fill:#64748b;fill-rule:evenodd"/><polygon points="1843.6 335.86 1478.73 975.97 1320.99 975.97 1843.6 105.25 2274.67 818.53 1680.54 818.53 1680.54 707.27 2066.24 707.27 1843.6 335.86" style="fill:#64748b;fill-rule:evenodd"/><polygon points="1680.54 863.52 2353.68 863.7 2288.42 973.07 2287.51 975.73 1680.54 975.97 1680.54 863.52" style="fill:#64748b;fill-rule:evenodd"/><polygon points="2426.48 743.12 2353.68 863.7 1844.01 4.56 1974.8 4.56 2426.48 743.12" style="fill:#64748b;fill-rule:evenodd"/><polygon points="578.99 562.53 578.99 678.65 270.27 678.65 267.02 680.37 267.02 975.91 154.34 975.91 154.34 562.5 158.77 562.53 578.99 562.53" style="fill:#64748b;fill-rule:evenodd"/><path d="M1717.3,842h594.13L1880.36,128.67,1357.75,999.39h157.74l364.87-640.11L2103,730.69H1717.3ZM2011.56,28H1880.77l509.67,859.14,72.8-120.58Zm-975,151.25-1.79.79-843.62.1,0,359,1.28.08,422.87.08-.31-116.12-311.06-.11-.09-2.27V294.41l2.82-.06h729c118.75,1.43,214.54,97.8,214.54,216.49,0,118.05-94.83,214-212.74,216.41l-4.47.06H952.55l-9.73.25V423.15H826.32V841.3l206.38.2,2.91.13c182.55-1.24,330.08-149,330.08-331.18C1365.69,328.58,1218.63,180.93,1036.53,179.23Z" transform="translate(-36.76 -23.42)" style="fill:#64748b;fill-rule:evenodd"/><path d="M1750,28,1513.55,414.45c-42.52-224.31-239.19-388.89-476.1-391H1033L36.8,23.49l0,975.83H149.44l0-863.67,883.49,0,3.58-.09c205.84,1.93,372.16,168.85,372.16,374.41,0,205.92-166.78,373-373.07,374.45l-2.67-.08H778.33l0-.91V423.13H661.85l-.48,460.33V998.24H1033l4.5,0c166.46-1.51,311.25-96.7,398.47-224.52l39.34-66.47L1880.77,28Zm-32.71,859V999.39l607-.24.91-2.66,65.26-109.37Z" transform="translate(-36.76 -23.42)" style="fill:#64748b;fill-rule:evenodd"/></svg>