<svg id="svg4749" xmlns="http://www.w3.org/2000/svg" viewBox="0 0 780.41 176.56"><g id="layer1"><path id="path96" d="M650.79,138.11c-6.24,0-16-5.39-19.71-12.58-3.5-6.56-4.38-10.17-4.38-24.9V97.87a112.75,112.75,0,0,1,.88-17.67c3.11-20,18.3-24.42,23.89-24.42,16.47,0,22.31,11,22.31,42,0,40.38-12.22,40.38-23,40.38m2.45-89c-11.14,0-21.06,6.16-27,16.37V50.68c0-1.46-.93-1.53-1.59-1.43l-.3.07-.25.07,0,0a72.07,72.07,0,0,1-11.26,1.5c-4.24.44-10.36.49-10.36.49l-.59,0c-2.65.25-3.84.93-3.57,2.75.21,1.35,2.05,1.85,3.18,2.14a36.06,36.06,0,0,1,4.87,1.28c.67.16,1.57.31,1.57,2l0-.52c0,8.61-.05,109.29,0,116.14s.26,6.47,7.06,6.47l12.81,0h.42c6,0,8.76-.08,8.39-2.63-.22-1.38-2.3-1.77-3.23-2-4.47-1.25-6.63-5.35-6.79-10.36,0,0,.08-26.71.12-36.79,5.94,9.44,14.29,14.17,25.63,14.17,28,0,43.07-23.44,43.07-45.51,0-36.19-25.22-49.32-42.17-49.32M356,109.27h.08l-.09,0s0,0,0,0m64.18,3.41c0-15-6.88-22.6-23.73-26.1-33.89-6.86-35.39-10.06-35.39-16.07A16.71,16.71,0,0,1,366,60c3.63-3.54,8.79-5.25,15.35-5.09,15,.75,21.16,12.51,23.67,22.25a3.06,3.06,0,0,1,.13.51c.66,3.52,6.12,3.77,6.12,0V52.37h0c0-1.59-.72-2.44-2.15-2.62l-.31,0-.06,0c-1.53-.17-2.56,1.92-3.12,2.84l-3,4.49c-6.73-5.27-13.64-8-20.56-8-24.31,0-30.8,17.68-30.8,28.12,0,18.93,12,21.79,25.88,25.09l2.29.55c17.16,4.34,30.29,8.33,30.29,16.76a16.39,16.39,0,0,1-4,10.62h0l-.38.42A23.81,23.81,0,0,1,388.43,138c-15.42,0-27.4-10.58-32.07-28.29l-.13-.48h0c-.28-1-.73-3.29-2.24-3.52a1.88,1.88,0,0,0-.84,0c-1.39,0-1.94,1.17-2.18,3.53h0a5,5,0,0,0-.1,1.44v28.88h0c-.06,2.54.5,3.73,2.4,3.78,1.12,0,2.17-1.61,2.72-2.7l4.73-7.73A36.78,36.78,0,0,0,387,143.87c9.39,0,17.94-3.11,24.07-8.76l.47-.53h0a30.41,30.41,0,0,0,8.63-21.9m147.62,1.78c0,8.53-2.65,11.1-4.38,12.8l-.34.33c-5.22,4.57-9.76,6.28-16.7,6.28-10,0-16.51-6.66-16.51-17,0-14.43,12.78-22,37.93-22.5ZM602.88,124c-.26-2.58-1-3.46-2.79-3.19-1.52.24-2,2.52-2.29,3.56h0l-.11.4c-1.87,6.44-4.22,9.57-7.16,9.57-3.82,0-4-2.47-4-9.59V71.62c0-9,0-22.54-31-22.54-26.5,0-36.38,13.55-36.38,22.09,0,6.92,4,11.39,10.05,11.39,5.88,0,9.83-4,9.83-10,0-5.28-3.3-7.62-5.28-9-.56-.4-1.42-1-1.42-1.24,0-5.61,14.72-7.35,20.08-7.35,4.63,0,15.4,1.25,15.4,12.92V88.38c-34.92.16-55.33,12.14-56,33,0,14.55,9.51,22.55,26.78,22.55,12.09,0,22.59-4.68,29.81-13,2,8.34,7.13,13,14.81,13,10.5,0,18.93-8.14,19.63-18.92l0-.72ZM724.6,68.48c.62-2.13,6.75-13.58,19.23-13.58,9.06,0,19.85,3.55,19.85,20.51v6.91H722.47a54.67,54.67,0,0,1,2.13-13.84m60.78,42.44h0c.09-2.6-.79-4-2.88-3.83a2,2,0,0,0-.64.15c-1.54.37-2.19,2.69-2.58,3.78h0l-.28,1h0l-.11.53c-3.17,14.94-18.42,25.35-30.13,25.35-22.21,0-26.56-14.39-26.56-39.26V90.15h57.68c2.64,0,6.06.7,5.08-6.52C782.12,63,766.32,49.07,744.5,49.07c-28,0-44.64,26-44.64,51.11,0,26.16,23.42,43.73,45.3,43.73,21.13,0,35.68-11.33,39.92-31.09l.18-.82h0a5.08,5.08,0,0,0,.14-1.08m-276.27-.13h0c.09-2.52-.75-3.82-2.78-3.7a1.61,1.61,0,0,0-.62.15c-1.49.34-2.12,2.6-2.5,3.65h0c-.15.46-.26.9-.35,1.24h0l-.15.46c-5.29,15.86-17.39,26.08-30.12,25.41-10.68-.61-17.84-4.76-21.29-12.32-.18-.43-4.62-11-4.62-26.5C446.69,67,453.82,55,473,55c5.46,0,18.29,2.66,18.29,7.8,0,.53-.8,1.18-1.73,1.92-2.16,1.73-5.41,4.35-5.41,10.36,0,6.56,4.58,11.15,11.15,11.15,7,0,10.71-6.43,10.71-12.49,0-18-21.34-24.54-35.69-24.54-11.76,0-45.3,9.17-45.3,50,0,12.48,8.21,44.85,45.74,44.85,25-1,33.38-17.08,37.89-31l.29-.88h0a6,6,0,0,0,.2-1.34" transform="translate(-5 -5)" style="fill:#64748b"/><path id="path108" d="M219.62,56c5.18,0,8.16,3.38,8.16,8.54,0,21.68-24.07,31.22-42.37,32.42,3.2-13.13,18.91-41,34.21-41m31.8,31a104.27,104.27,0,0,1-11.71,21.1c-.92,1.21-20.2,24.63-40.58,24.63-9.34,0-16.29-5.37-16.29-15.31a62.85,62.85,0,0,1,1.56-14.83c21.28-2,59.29-11.81,59.29-38.85,0-10.93-10.54-14.12-19.5-14.12-28.83,0-57.26,35.19-57.26,67,0,13.32,6.16,26.83,24.46,26.83,28.35,0,46-22.81,51.94-31.44,1.26-1.85,3.47-5.77,4.62-7.92m55.64,28.17c-2.87,2.43-9.45,5.88-15,5.88-17.24,0-22-9.74-22-45.3,0-18.44,1.61-38.13,20.85-38.13,12.71,0,21.86,8.11,25.76,22.84,1.49,5,1.6,16.4,1.6,19.78,0,23-2.74,27.35-11.22,34.93m43.76,6.83c-.16-1.09-1.7-1.54-2.82-1.87l-.68-.21c-3.26-1.15-6.25-5.26-7.45-7.93a18.09,18.09,0,0,1-.73-4.32c-.09-3.61-.29-12.16-.54-23L335.07,13s0-1.44,0-1.45c0-6.59.66-6.25-7.63-6.51L313.22,5h-.43c-6,0-8.82.08-8.42,2.65.21,1.38,2.29,1.78,3.23,2.05,4.5,1.26,6.68,5.38,6.82,10.42l-.06,44.08h-.45c-6.07-11.8-19.67-14.64-26.84-14.64-26.71,0-41.73,21.53-41.73,46.65a50,50,0,0,0,.46,6.85c.48,3.43,1.93,9.33,1.85,9.06,5.45,18.24,19.43,31.48,37.16,31.41,10.38,0,23.52-4.58,29.3-14.49h.46a39,39,0,0,1,.4,6.58c0,6.2-.46,6.12,6.42,6.12H338c5,0,8.07-.06,9-1.18a1.46,1.46,0,0,0,.34-1,2.39,2.39,0,0,0,0-.44M164,136.81c-4.09-1.43-7.21-6.26-7.3-8.73s-2.59-112.16-2.59-112.16c-.11-5.68.15-9.81-1.37-10.37C151,4.85,143.19,5,141.14,5c-4.94,0-8.61-.14-9.5.91s-2.75,5-4.77,10.36l-10,22.34c-2.6,5.06-7,13.67-9.63,18.71L92,86.84c-2.61,5-6.95,5.1-9.68.11L66.41,57.78,56.52,39.65,45.37,16.09C43.11,10.87,42,6.83,40.92,5.85,40,5,36,5,30.33,5H17c-6.63,0-9.62.07-9.19,2.88.23,1.53,2.54,2,3.56,2.25C15.47,11.33,17,16.35,17,18.83s-.08,102.4-.56,106.77c-.08.74-.21,1.49-.37,2.27a.28.28,0,0,0-.16.21c-.79,4.26-3.17,7.57-7.28,8.73-1,.29-3.33.73-3.56,2.26-.43,2.8,2.64,2.9,9.27,2.9l4.48,0A10.48,10.48,0,0,0,20,142l.1-.07h5.24l11,0c6.63,0,9.71-.1,9.29-2.9-.24-1.53-2.54-2-3.56-2.26-4.11-1.16-5.79-3.75-7.3-8.73,0,0,0,0,0-.08a65.19,65.19,0,0,1-1.06-7.56c-.22-5.69-.36-15-.29-20.66V98c.06-5.68.21-15,.35-20.65L34.21,55c.13-5.67,2.44-6.23,5.13-1.24L54.11,81.19C56.81,86.2,71,113,73.49,118c2.15,4.31,2.6,5.93,9.24,6,7.43.09,7.43-2,10.49-8.53,2.24-4.81,33.91-67.14,33.91-67.14,2.58-5.06,4.81-4.55,5,1.13,0,0,.4,76-.13,79.4-.09.52-.16.89-.2,1.14a9.83,9.83,0,0,1-6.76,6.75c-1,.29-3.31.73-3.56,2.26-.41,2.8,2.65,2.9,9.28,2.9l13.8,0h6.17l3.22,0a.57.57,0,0,0,.22,0l4.18,0c6.65,0,9.7-.1,9.28-2.9-.23-1.54-2.55-1.91-3.55-2.26" transform="translate(-5 -5)" style="fill:#64748b"/></g></svg>