<svg id="Layer_1" data-name="Layer 1" xmlns="http://www.w3.org/2000/svg" viewBox="0 0 352.01 143"><path d="M81.24,129.06c-1.11,0-2.65-2.54-3.15-4.17-7-22.81-14-45.66-20.89-68.5-.4-1.32-.91-2.61-1.78-5.09C52,68.23,48.82,83.93,45.68,99.63c-1.75,8.77-3.36,17.58-5.27,26.31-.27,1.26-1.88,3.15-2.91,3.18-8.95.25-17.92.14-27.61.14,1.6-7.86,3-15.11,4.56-22.34C20.66,77.75,27,48.61,33,19.4c1-4.81,2.89-6.53,7.81-6.33,9,.37,18,.37,27,0,4.59-.19,6.35,1.6,7.55,5.79C82,42.13,88.92,65.33,95.74,88.54c.27.94.65,1.84,1.18,3.29C102.05,66.64,107,42,112.17,17.43c.31-1.48,1.72-3.87,2.68-3.9,9.09-.3,18.19-.18,28-.18-8.26,39-16.35,77.17-24.55,115.9C105.81,129.25,93.52,129.36,81.24,129.06Zm144.14,0c-9.46.3-18.94.17-29.24.17,3.43-16.69,6.7-32.56,10-48.76H171.06c-3.11,14.81-6.16,29.7-9.44,44.54-.34,1.55-2,4-3.08,4-9.61.32-19.24.18-29.37.18,3.23-15.77,6.29-30.86,9.41-45.93,4.51-21.75,9.15-43.47,13.5-65.25.73-3.67,2.16-5,5.87-5,8.76.19,17.53.06,27,.06-3.08,15.19-5.95,29.4-9,44.3,11.33,0,22.11.11,32.88-.16,1.13,0,2.89-2.15,3.19-3.56,2.56-11.65,5-23.34,7.14-35.07.71-3.86,2-5.77,6.35-5.61,8.59.33,17.2.1,26.6.1-1.6,7.89-3,14.82-4.41,21.75q-9.42,45.27-19,90.52C228.39,126.89,226.56,129.07,225.38,129.1ZM339,21.42c-2.33,6-4,12.23-6.13,19a63.62,63.62,0,0,0-37.74-4.18c-4.73.87-8.65,3-9.29,8.28s3,7.91,7,9.84c5.38,2.6,10.94,4.81,16.44,7.14C322.31,67,330.65,76.27,330.5,91c-.16,15.22-6.92,26.81-21.05,33.47-14.45,6.81-29.82,7.8-45.36,6.24-7.7-.78-15.25-3-22.91-4.38-2.85-.52-3.61-1.86-2.78-4.49,2.09-6.62,4.14-13.26,6.37-20.4,1.51.52,2.85.93,4.16,1.44,11.72,4.55,23.76,6.11,36.17,3.69,7.14-1.39,11.55-5.15,12.14-10.14.72-6-1.68-9.66-9.19-13.12-5.42-2.5-11-4.58-16.47-7-9.53-4.33-17.19-10.52-18.3-21.77-1.36-13.83,2.51-25.69,14.52-33.91,11.22-7.68,24.1-9.51,37.13-9.2,10.23.25,20.42,2.09,30.61,3.39C339.56,15.32,340.55,17.4,339,21.42ZM.49,0V143h352V0Z" transform="translate(-0.49)" style="fill:#64748b"/><path d="M352.51,0V143h0V0Z" transform="translate(-0.49)" style="fill:#64748b"/></svg>