<svg id="Layer_1" data-name="Layer 1" xmlns="http://www.w3.org/2000/svg" viewBox="0 0 282.52 178">
  <path
    d="M244.1,84.08c-14.91-26.45-29.58-53-44.29-79.59A40.09,40.09,0,0,1,198,0H14A20.75,20.75,0,0,0,0,14V164a20.92,20.92,0,0,0,14,14H198c.85-1.93,1.55-3.94,2.57-5.78,14.51-26.29,29-52.59,43.7-78.77C246.23,89.94,246,87.51,244.1,84.08Zm-152,45.13c-4.44,0-8.91.32-13.29-.18-1.48-.17-3.07-2.23-4-3.78C64.6,109,54.58,92.73,44.52,76.46c-.84-1.36-1.78-2.65-3.3-4.91v57.29H27.3c-.11-1.92-.3-3.71-.3-5.49,0-22.84.12-45.67-.12-68.5,0-4.83,1.45-5.93,6.18-6.25,7-.46,11,1.77,14.57,8C56.36,71.92,66,86.71,75.32,101.69c.83,1.34,1.76,2.61,3.33,5V49.23H92.07Zm27.86-.38H106V49.09h13.89Zm77.86.12H184V93.7H148.35v35.13H133.74v-80c3.4,0,6.38,0,9.35,0,1.47,0,2.93.16,5,.28V80.32h35.48V49.08h14.24Z"
    style="fill:#64748b" />
  <path
    d="M281.23,93.19C268.94,115,256.59,136.85,244.88,159c-5,9.43-10.82,17-21.88,19H211c.82-1.8,1.53-3.66,2.49-5.39q22.08-39.92,44.27-79.76c1.56-2.79,1.77-4.9.12-7.74-5.18-8.9-10.08-18-15-27Q226.9,29.07,211,0h14c9.95,2.69,15.31,9.92,19.92,18.63,11.74,22.15,24,44,36.23,65.9C282.89,87.66,283,90,281.23,93.19Z"
    style="fill:#64748b" />
</svg>