<svg id="Layer_1" data-name="Layer 1" xmlns="http://www.w3.org/2000/svg" viewBox="0 0 379.36 336.45"><g id="_4InsFS.tif" data-name="4InsFS.tif"><path d="M379.68,175.88v2.55c-.48,12-3.27,23.42-9.87,33.68a66.83,66.83,0,0,1-13.87,15.29,182.2,182.2,0,0,1-15.72,11.15,70.31,70.31,0,0,0-9.82,7.34c-.76.72-1.54,1.43-2.35,2.17.46-2.18,1-4.34,1.37-6.53a75,75,0,0,0,.87-21.26c-.52-5.49-1.17-11-1.72-16.47a64.74,64.74,0,0,1,2.91-26.58c.35-1.08.74-2.15,1.11-3.23l.32,0c.11.81.2,1.62.32,2.43a77.62,77.62,0,0,0,3.24,12.64,83.7,83.7,0,0,1,3.72,15.14,66.89,66.89,0,0,1-.6,19.52c-.41,2.45-.93,4.88-1.39,7.32,1.53-2.6,3-5.22,4.61-7.77A124.75,124.75,0,0,1,357.37,205c4.17-4.47,8.38-8.9,12.46-13.45a49.44,49.44,0,0,0,8.65-12.93C378.89,177.7,379.28,176.79,379.68,175.88Z" transform="translate(-0.32 -0.38)" style="fill:#64748b"/><path d="M320.09,140.29A131.57,131.57,0,0,0,204.88,27.6a13,13,0,0,0-1.53,0c-.29,1.44-.54,2.73-.84,4.18a126.57,126.57,0,0,1,76.27,35.74q-7.17,7-14.08,13.88c0-.45.12-1.12.18-1.69-1.15-1.2-2.55-1-4.09-.9.7-1.5.21-2.7-.13-3.91a10.17,10.17,0,0,1-.3-1.08A9,9,0,0,0,257.73,69a13.55,13.55,0,0,0-3.88-3c-2.71-1.34-5.36-2.82-8-4.23a9.3,9.3,0,0,0-.86-.37l-3.06,1.71.67,1.1A33.25,33.25,0,0,1,247.61,80c.1,1.63-.16,3.41.41,4.85s2,2.72,3,4.06c.67.86,1.32,1.73,2.06,2.71l-2.36.67c.53,1,1,1.76,1.44,2.55l-5,4.77c-.58-1-1.2-2.09-1.87-3.24l-3.62,7.29.81,1-15.31,15.16c-.83-.76-1.51-1.35-2.15-2a1.1,1.1,0,0,0-1.43-.23c-1.06.5-2.15.92-3.22,1.38-.06,0-.08.17-.13.27l.9,1.06a11.76,11.76,0,0,0-2,1.17,12.79,12.79,0,0,0-1.43,1.85l-1.13-.82-3,1.12.83,1.37,3.67-.48c2-2.22,4.42-2.86,6.13-1.38l-5.42,5.6a28,28,0,0,0-7.53,1.31l-.33.32-.49.16h0c0-.17.07-.33.1-.5l.33-.33c.55-.57,1.1-1.14,1.64-1.72.05-.06,0-.19,0-.35-.3-.16-.62-.35-.95-.5-.08,0-.2,0-.45,0l-3.39,4.45c1.31.23.67,1.22,1.07,1.92.87.38,1.68.94,1.12,2.28a7.07,7.07,0,0,0-2.32-.13,5.17,5.17,0,0,1-4.07-.81c-1-.57-2.13-1.07-3.46-1.74-.13,7.68-.26,15-.39,22.41l1.65.6a68.39,68.39,0,0,1,13.29,6.13c6.9,4.38,11.3,10.34,12,18.71.56,6.82-1.4,12.71-6.35,17.5a29.62,29.62,0,0,1-10.21,6.38c-3.38,1.27-6.82,2.36-10.24,3.52-1.41.48-1.42.46-1.43,2,0,.74,0,1.48,0,2.23,0,2.65,0,5.3,0,8,.5.28,1,.51,1.42.78,2.2,1.3,4.47,2.49,6.56,3.94a26,26,0,0,1,10,12.72,31.83,31.83,0,0,1,1.74,10.8,32.93,32.93,0,0,1-.52,5.7,4.32,4.32,0,0,1-3.79,3.78c-3.4.58-6.79,1.24-10.2,1.79-1.93.31-3.89.48-6,.73v4.27a105.68,105.68,0,0,0,65.2-28.7l15.34,15.13A123.92,123.92,0,0,1,226,282a126.53,126.53,0,0,1-123.2-30.14c5.17-5.17,10.11-10.25,15.24-15.25a107.18,107.18,0,0,0,30,19.79c10.56,4.65,30.19,9.48,34.78,8.45v-4c-23.65-2.21-44.08-11.18-61.36-27.46.55-.61,1-1.08,1.41-1.53,2.55-2.7,2.57-2.77,6.28-2.19a2.63,2.63,0,0,0,3-1.16c1.12-1.82,2.75-2.11,4.67-1.73a2.42,2.42,0,0,0,.47,0h4.54l1.1-3.31a79.45,79.45,0,0,0,39.2,15.43v-4.28a75.79,75.79,0,0,1-42.5-19.5L155,200a50.58,50.58,0,0,0,12.12,8.09l1.47-4.1a54.79,54.79,0,0,1-10.44-7.09l15.28-15.22a26.24,26.24,0,0,0,7.75,4.18c0-1.23-.06-2.24,0-3.24a1.73,1.73,0,0,0-1.18-1.95,11.29,11.29,0,0,1-3.75-2.51c1.37-1.38,2.67-2.69,4.1-4.15l-4.43-1.53-3.09,3c-1.09-1.59-2.12-3-3-4.48a3.76,3.76,0,0,0-1.6-1.46c-1.8-.9-3.61-1.82-5.35-2.83a29.79,29.79,0,0,1-12-12.28c-4.11-8.1-4.38-16.52-1.94-25.12a28.9,28.9,0,0,1,4.65-9.17l-15.22-15.31A75.67,75.67,0,0,1,179,84.64v-4.3a80.51,80.51,0,0,0-23.45,7.3,79.25,79.25,0,0,0-20.12,14.1l-2.7-2.54c-.72,1.41-1.37,2.66-2,3.86l1.56,1.81C118.42,120,111.45,137.72,110.7,158H89.06a101.54,101.54,0,0,1,8.46-39.22,100.43,100.43,0,0,1,19.36-29.31c2.1,2.06,4.06,4,6.05,5.92a2.56,2.56,0,0,0,1.28.81,8,8,0,0,0,4.4-1.11c-2.94-3-5.74-5.77-8.63-8.66.44-.46.78-.86,1.16-1.22a113.88,113.88,0,0,1,12.91-10.38,2.81,2.81,0,0,0,1.15-1.41,12.85,12.85,0,0,1,2.36-4.48c.46-.61.91-1.23,1.36-1.84a94.21,94.21,0,0,0-21.81,16l-15.2-15.28a126.86,126.86,0,0,1,34.83-24.13,128.55,128.55,0,0,1,40.85-11.37c-.29-1.52-.55-2.84-.81-4.22-.76.05-1.34.07-1.91.14A130.39,130.39,0,0,0,130.71,41.6,128.22,128.22,0,0,0,92.56,71.05a130.59,130.59,0,0,0-33.08,77.32,128.14,128.14,0,0,0,1.7,34,131.66,131.66,0,0,0,84.33,100.59,127.7,127.7,0,0,0,39.89,7.71c4.25.14,8.51,0,12.75-.21a113.25,113.25,0,0,0,21.44-3c28-6.6,51.29-20.88,70.07-42.56a129,129,0,0,0,20.81-33.26,130.82,130.82,0,0,0,10.72-45.84A133.81,133.81,0,0,0,320.09,140.29ZM210.3,131.08l-.4.16-.12-.32a2.12,2.12,0,0,1,.41-.12s0,0,0,0a.68.68,0,0,1,.06.16.36.36,0,0,1,0,.09Zm-74.23,80.28A47.85,47.85,0,0,1,132,206.8a1.91,1.91,0,0,1-.2-1.2,23.73,23.73,0,0,1,.4-3.16,3.4,3.4,0,0,0-.31-2.6c-.11-.18-.13-.41-.24-.59a15.34,15.34,0,0,1-1.77-7.82,11.88,11.88,0,0,0-1.79-6.8,4.83,4.83,0,0,1-.72-4.36,2.74,2.74,0,0,0-.21-1.65c-.34-.83-.87-1.58-1.25-2.4-.84-1.8-1.69-3.58-4.12-4.05.27-.78.44-1.43.71-2a2.3,2.3,0,0,0-.12-2.4c-1-1.38-.07-2.54.48-3.69.11-.24.74-.35,1.12-.33,1.18.06,2.2-.05,2.8-1.3.12-.26.71-.4,1.09-.42,1.06-.06,2.12-.05,3.19,0a1.6,1.6,0,0,1,1.59,1.9,37.06,37.06,0,0,1-1.18,4.78,2.21,2.21,0,0,0,0,1.8c.45,1,.88,1.93,1.32,2.93-.82,1.24-1.49.46-2.18,0-.08,1.76,1.47,4.86,2.76,5.46.24-1.12.84-2.17,0-3.3a1.58,1.58,0,0,1-.26-.9c0-2.16.08-4.33.19-6.5a13.43,13.43,0,0,1,.42-2.51,3.31,3.31,0,0,0-.68-3.46h3.36A54.3,54.3,0,0,0,151,196.07ZM129,152h0c.05-.39.09-.71.13-1v0a4.57,4.57,0,0,1,.1-.46,1.4,1.4,0,0,1,.34-.65c.09-.08.19-.17.3-.25a.42.42,0,0,1,.14-.09l.27-.16a1.69,1.69,0,0,1,.27-.13l.63-.3.25-.11h0a1.86,1.86,0,0,1,.52-.11l.33,0,.24,0c.45.05.9.1,1.35.17.6.08,1.19.19,1.78.3a3.19,3.19,0,0,1,.51.12l.18.07a1,1,0,0,1,.21.1,1.11,1.11,0,0,1,.23.19.91.91,0,0,1,.15.23v0a.72.72,0,0,1,.08.26,2.69,2.69,0,0,1,0,.86c-.23,2.1-.45,4.19-.69,6.44h-4.67a.88.88,0,0,1-.29,0h0l-.14-.07A2.53,2.53,0,0,1,131,157a4.69,4.69,0,0,1-.41-.45l-.41-.54a9.43,9.43,0,0,1-1.11-1.91l-.08-.24a.67.67,0,0,1,0-.18h0A17,17,0,0,1,129,152Zm19.71,17.26a11,11,0,0,0,1.33.89c.22.14.53.4.69.33,1.76-.73,2.5.83,3.76,1.53l-1,1.11,2.9,1.89a11.71,11.71,0,0,1,.28-2.53,13.06,13.06,0,0,1,1.31-2.27,12.8,12.8,0,0,1,3.61,4.27l-3.15,1.05c.5,1,.95,1.88,1.46,2.88a6.39,6.39,0,0,0,1.58-.9c.41-.45.5-1.18.9-1.63s1.16-.71,1.25-1.54.28-1.57.44-2.35c.08-.33.21-.66.32-1l4.82,7.27-15.08,15.13a48.38,48.38,0,0,1-13-28.3c.67.72,1.36,1.43,2,2.17a1.74,1.74,0,0,0,1.67.73A4.85,4.85,0,0,1,148.74,169.22ZM115,154.87v0c0-.19,0-.38,0-.58h0l0-.62h0c0-.22,0-.44,0-.66s0-.63.08-.95,0-.53.08-.81.09-.81.14-1.23.07-.62.12-.94.08-.62.13-.94.07-.48.11-.72.08-.53.12-.79l.06-.35c.07-.45.15-.91.23-1.36.4-2.19.88-4.36,1.4-6.25.41-1.48.86-2.94,1.35-4.37s1-2.85,1.59-4.24,1.18-2.75,1.83-4.1c1-2,2-4,3.18-5.9q1.16-1.9,2.41-3.75a74,74,0,0,1,7-8.78l3.83,3.77,11.48,11.32h0c-.64.81-1.34,1.61-2,2.46-.21.28-.42.57-.62.86q-2.4,3.57-4.65,7.23a2.14,2.14,0,0,1-1.78,1.28c-1.41.15-2.91.28-4,1.39a4,4,0,0,0-.66.93h0a1.31,1.31,0,0,0,.28,0h.28a10.7,10.7,0,0,0,1.68-.15l1-.19,1-.2.72-.13h0a10.5,10.5,0,0,1-1.41,1.37h0a3.85,3.85,0,0,1-.7.44,3,3,0,0,1-.77.24,4.3,4.3,0,0,0-.94.27,4.63,4.63,0,0,0-.54.29,1.45,1.45,0,0,0-.26.17,5.71,5.71,0,0,0-.47.39c-.23.21-.47.41-.71.59h0a3.59,3.59,0,0,1-2.89.88,4.8,4.8,0,0,1-.67-.18.87.87,0,0,0-1.06.28,2.83,2.83,0,0,0-.31.46h0c-1.37,2.64-2.77,5.26-4.17,7.89l.33.71.49,1c-.58.7-1.31,1.36-1.85,2.11a4.17,4.17,0,0,0-.46.79c-.06.14-.12.28-.17.42a7.67,7.67,0,0,0-.28,1.38c-.08.64-.13,1.3-.23,1.95h-9.26a2.74,2.74,0,0,1-.1-.39,6.31,6.31,0,0,1-.08-.84c0-.13,0-.27,0-.42s0-.34,0-.52S115,155.06,115,154.87Zm3.92,7.08.57,0c.38,0,.75,0,1.11.08l.69.09h0c-.15.56-.29,1.12-.44,1.67s-.3,1.1-.49,1.64a2.36,2.36,0,0,0,.71,3.09,4.89,4.89,0,0,1,.63.76h0l-.44.67-.43.69c-.29.46-.59.92-.91,1.36a.82.82,0,0,1-.36.26.9.9,0,0,1-.23.08l-.23,0c-1,0-1.89,0-3.15,0l-.15-1.3c-.17-1.51-.33-3-.49-4.45s-.31-2.9-.47-4.33A13.23,13.23,0,0,1,118.91,162Zm-4.68,61.9,1.22-.94,4,2.35,1.21.71.55.32-1,1-.61.61-.61.61a.52.52,0,0,0-.11.1c-.14.15-.29.29-.43.43s-.57.56-.86.84l-.46-.42a6,6,0,0,1-.44-.43c-1.21-1.34-2.4-2.7-3.72-4.18C113.43,224.47,113.83,224.15,114.23,223.85Zm-3.18-55.75h0l-1.08.27-1.19.3a.76.76,0,0,1-.09.09,1.14,1.14,0,0,0-.12.14.25.25,0,0,0,0,.07,6.43,6.43,0,0,1-.81,2.47,4.48,4.48,0,0,1-.32.56c-.12.18-.24.36-.37.53l-.4.53q-.19.25-.42.51c-1.07,1.24-2,2.59-3.07,3.86a3.29,3.29,0,0,0-.33.46,3.14,3.14,0,0,0-.18.37,3,3,0,0,0-.21.79,3.41,3.41,0,0,0,0,.56c0,1.28.07,2.56.08,3.85l0,3V187c0,.35,0,.68,0,1h0l-.76.36-.3.14-.3.13a16.28,16.28,0,0,1-1.67.65,13.63,13.63,0,0,1-1.57.43,11,11,0,0,1-1.7.23c-.53,0-1.07,0-1.62,0-.25,0-.49,0-.74,0h0A95.07,95.07,0,0,1,90,172.62c-.13-1.06-.26-2.11-.37-3.18l-.06-.59c0-.51-.1-1-.14-1.55,0,0,0-.09,0-.13-.14-1.74-.24-3.48-.31-5.24H110.5c0,.54.09,1.07.14,1.61C110.78,165,110.91,166.53,111.05,168.1ZM68.43,122.66c6.45-21.89,18.72-40.4,30.1-51.66l15.28,15C95.14,106.15,85.5,130,84.69,157.57H63.46C62.32,153.9,65.24,133.5,68.43,122.66Zm-5.31,39.42H84.76a101.42,101.42,0,0,0,4.51,27.4,1.23,1.23,0,0,1-1.69-.43,2.23,2.23,0,0,0-1.81-.82c-.42,0-.84-.13-1.26-.17l-3.78-.29,1.64,2.53-5.18-1,1.14-1.4-1.16-1.28a22.78,22.78,0,0,0-3.55,1.49,4.07,4.07,0,0,0-2,3.73c.07,1.58.29,3.17.48,4.75a5,5,0,0,0,.37,1.37c1.25,3,2.46,6.11,3.81,9.12.64,1.45,1.54,2.78,2.32,4.17a1.32,1.32,0,0,0,1.58.73c-.85-1.62-1.71-3.12-2.43-4.7a37,37,0,0,1-1.41-3.86,2.14,2.14,0,0,1,.15-1.82c.25-.48,0-1.2,0-1.93A2.53,2.53,0,0,1,79,201c.64,1.09,1.42,2.11,2.17,3.15a10.17,10.17,0,0,0,1.07,1c.06-1.32.11-2.29.16-3.31,1.5.12,1.27,1.4,1.69,2.35a18.52,18.52,0,0,1,2.52.75c1.06.46,1.53-.9,2.66-.67,0,.48.1,1,.11,1.48a3.1,3.1,0,0,0,2.55,3.28,1.93,1.93,0,0,1,1.31,1c.87,1.46,1.88,2.85,2.63,4.37a3.71,3.71,0,0,0,3.37,2.12c.24-.86.47-1.71.8-2.88a110,110,0,0,0,14.64,18.9L99.34,247.85Q65.07,212.11,63.12,162.08ZM251.35,101.8c.94-.85,1.88-1.7,2.83-2.53a2.24,2.24,0,0,1,1.33-.34H256c.94,0,1.88,0,2.83.08a2.18,2.18,0,0,1,1.48.6,2,2,0,0,1,.52,1.66s0,0,0,0a1.55,1.55,0,0,1,0,.29c-.17.8-.23,1.08.07,1.37a4.18,4.18,0,0,0,.74.52c1.53,1,3.06,1.92,4.61,2.85l.65.41.35.2a2.2,2.2,0,0,0,1.64.24.32.32,0,0,1,.19,0,1,1,0,0,1,.26.14,2.63,2.63,0,0,1,.41.35l.13.13.11.12c2.63,3,5.25,6.13,7.87,9.2.13.16.28.31.52.58l3.73-1.22h0q.47,1,.9,2c.12.27.23.55.35.82.29.68.58,1.37.84,2.06s.63,1.6.93,2.41a.64.64,0,0,1,0,.07c.31.83.6,1.66.88,2.49s.48,1.44.71,2.17c.1.3.19.6.28.91.21.65.39,1.3.57,1.95q.72,2.53,1.29,5.09c.19.85.38,1.7.54,2.56.11.52.21,1,.29,1.55s.16.81.22,1.22c.14.8.27,1.61.38,2.41s.22,1.62.33,2.43a1.46,1.46,0,0,0,0,.22c.1.86.19,1.71.26,2.58.07.67.13,1.34.17,2a3,3,0,0,1,0,.42c0,.26,0,.51.05.77.05.66.08,1.32.11,2,0,.18,0,.36,0,.54,0,.74.06,1.48.07,2.22h-.09l-.19,0-.27,0-.21,0a3.68,3.68,0,0,1-.49,0h0a5.22,5.22,0,0,1-.58,0h0q-.32,0-.66,0h0c-.61,0-1.29.05-2,.06h-.07l-1.08,0H285l-1.29,0c-3.39,0-7.24.06-10.06,0-.9,0-1.69,0-2.33-.06h-.25l-.57,0-.54,0c-.1-1.27-.24-2.56-.29-3.87,0-.92-.1-1.83-.19-2.74s-.21-1.82-.34-2.72c-.07-.46-.14-.91-.22-1.36-.15-.9-.31-1.8-.5-2.7-.09-.45-.18-.9-.28-1.35a2.61,2.61,0,0,1,.33-2.54,1.53,1.53,0,0,0,.16-.25,3.84,3.84,0,0,0,.25-.94c.09-.43.18-.86.28-1.28,0-.22.09-.43.14-.65s.09-.4.13-.6.08-.37.11-.56.08-.41.11-.61.08-.54.11-.81a5,5,0,0,0,.07-.65,14.72,14.72,0,0,0-.07-2.39l-.12-1.14c0-.36-.07-.72-.1-1.07s0-.42-.06-.63,0-.33-.05-.49l-.06-.48a.17.17,0,0,0,0-.07c0-.32-.09-.63-.15-.94s-.13-.66-.2-1l-.24-1c-.08-.31-.16-.62-.25-.92l-.06-.2c-.12-.41-.25-.82-.38-1.23-.19-.61-.4-1.22-.6-1.83a.26.26,0,0,0,0-.11q-.22-.66-.42-1.32c0-.14-.09-.28-.13-.42-.1-.31-.19-.62-.28-.94h0a2.51,2.51,0,0,0-.32-.71l-.22-.34-.22-.33c-1.36-2-2.74-4-4.1-6.07h0c-.26-.38-.5-.79-.76-1.21l1.72-.18h0a1.74,1.74,0,0,0-.19-.22l-.21-.23-.36-.36c-.26-.24-.56-.49-.87-.73-.15-.13-.31-.25-.48-.37l-.67-.47-.68-.43c-.34-.2-.66-.38-1-.53l-.29-.14a1.29,1.29,0,0,0-.26.34A1.17,1.17,0,0,0,258,107l1.24,1.77c.41.59.82,1.18,1.24,1.76s.65.93.95,1.4.61.94.89,1.42l.09.16c.27.44.51.88.75,1.33s.52,1,.76,1.5.38.78.55,1.18.25.55.36.82c.19.44.37.88.54,1.33s.35.89.51,1.34.38,1.07.55,1.61c.11.33.21.66.29,1s.17.67.24,1,.14.68.2,1c.12.62.22,1.25.31,1.88a2.36,2.36,0,0,0,0,.28c.14,1,.27,2,.44,2.94.05.29.09.58.13.86.12.86.22,1.72.34,2.56h0l-.23.11a4.79,4.79,0,0,1-.87.37.6.6,0,0,1-.37,0l-.12,0a.73.73,0,0,1-.22-.18,2.08,2.08,0,0,1-.27-.41l-.19-.35c-.25-.47-.48-1-.71-1.43a15.89,15.89,0,0,0-.75-1.41,3.64,3.64,0,0,1-.56-1.46,1.34,1.34,0,0,1,0-.4,1,1,0,0,1,.06-.29.14.14,0,0,1,0-.06.49.49,0,0,1,.06-.17,1,1,0,0,1,.07-.15,2,2,0,0,1,.31-.45l.18-.19-.3-.43c-.19-.28-.37-.55-.56-.8s-.18-.26-.28-.38l-.18-.24a1.83,1.83,0,0,1-.16-.26l-.12-.24a2.77,2.77,0,0,1-.1-.26,3.31,3.31,0,0,1-.12-.42,4.6,4.6,0,0,1-.08-.93.37.37,0,0,0,0-.11,2.44,2.44,0,0,0,0-.27,2.28,2.28,0,0,0,0-.26,1.26,1.26,0,0,0,0-.28,1.89,1.89,0,0,0-.05-.23,2,2,0,0,0-.07-.23,1.89,1.89,0,0,0-.11-.25,1.28,1.28,0,0,0-.14-.23l-.08-.1-.09-.1a.64.64,0,0,0-.15-.13l-.26-.17-.29-.14-.19-.06a.33.33,0,0,0-.14,0,5.36,5.36,0,0,0-1.29-.14h0c-.38-.65-.8-1.37-1.27-2.2a3.25,3.25,0,0,0,.27-.26c.08-.09.17-.18.24-.27l.1-.14a.73.73,0,0,0,.07-.79,1,1,0,0,0-.12-.19,1.35,1.35,0,0,0-.16-.19c.5-.38.84-.62,1.28-.94h0l-.15-.17c-.07-.08-.13-.16-.2-.23s0,0,0,0,0,0,0,0,0,0,0,0h-.07a6.4,6.4,0,0,0-.84.14l-.47.11-.5.12h0a20.54,20.54,0,0,1,.39-2.11,1.1,1.1,0,0,0-.22-1.24,1.23,1.23,0,0,0-.37-.23,2.86,2.86,0,0,0-.52-.18l-.5,1.08c-.17.38-.35.76-.55,1.19h0c-1.31-1.67-2.58-3.32-3.86-5L251,107.47l-.48-.61-1-1.25-1-1.25C249.49,103.5,250.41,102.65,251.35,101.8Zm-5,54.3a.51.51,0,0,1,.06-.25,1.5,1.5,0,0,1,.17-.23.49.49,0,0,1,.13-.12,7.37,7.37,0,0,1,.58-.46,3.51,3.51,0,0,0,.36-.29,4.63,4.63,0,0,0,.7-.7,2.85,2.85,0,0,0,.34-.49l.15-.27A1.44,1.44,0,0,1,249,153a.43.43,0,0,1,.12-.11,3.2,3.2,0,0,1,.75-.48l.42-.2.21-.08.14,0a.11.11,0,0,1,.08,0s0,0,0,0a3.55,3.55,0,0,1,.47-.06l.32,0,.32-.05.14,0a.59.59,0,0,0,.4-.41.87.87,0,0,0,0-.19.92.92,0,0,0,0-.29,1.07,1.07,0,0,0-.07-.19.91.91,0,0,0-.11-.16,1.2,1.2,0,0,0-.21-.17l-.26-.15c-.37-.19-.73-.4-1.38-.76.23-.1.45-.21.66-.32.56-.29,1.09-.6,1.61-.88l.52-.28c.29-.14.58-.27.88-.38a4.62,4.62,0,0,1,.92-.25,3,3,0,0,1,.43-.06,7.18,7.18,0,0,0,.79-.12,2,2,0,0,1,.35-.06l.38,0h.21a1.4,1.4,0,0,0,.87-.29,2.25,2.25,0,0,0,.45-.51,1.64,1.64,0,0,0,.14-.22l.16-.27a2.11,2.11,0,0,1,.18-.27,4,4,0,0,1,.41-.5l.18-.17a1.61,1.61,0,0,1,.4-.26c.18-.09.35-.18.51-.28a2.93,2.93,0,0,0,.43-.34,3.7,3.7,0,0,0,.28-.28,3.15,3.15,0,0,0,.24-.3,3.87,3.87,0,0,0,.27-.43,3.55,3.55,0,0,0,.2-.39.88.88,0,0,0,.1-.22c.08-.18.15-.35.21-.53s.13-.39.19-.58c.18-.58.32-1.17.48-1.75.71,1.31,1.22,2.55.57,4-.13.3-.26.61-.37.92-.23.62-.43,1.25-.62,1.89l-.27,1a7.3,7.3,0,0,0-.22,1.15c-.05.38-.09.77-.15,1.15l.33.14,2.28-3.47a0,0,0,0,0,0,0,82.41,82.41,0,0,1,1.1,10.94v.07H246.8A3.62,3.62,0,0,1,246.31,156.1Zm-21.18-21.34.55-.31.59-.34h0l-.08-.11c-.12-.16-.21-.32-.34-.38-1.37-.58-1.28-1.66-1.19-2.9a5.26,5.26,0,0,1,.77-2.5,6.08,6.08,0,0,1,.83-1c.16-.16.34-.32.52-.47s.4-.31.61-.45h0c.32.41.65.82,1,1.24,1,1.23,2,2.48,3,3.75l-.73,2.3c-.62-.33-1.07-.57-1.42-.74l-.22-.1a2.72,2.72,0,0,0-.43-.17,2.43,2.43,0,0,0-1.34.09,1.29,1.29,0,0,0-.06.37.85.85,0,0,0,0,.23.68.68,0,0,0,.07.2,1.18,1.18,0,0,0,.11.19,3.38,3.38,0,0,0,.31.35c.17.17.36.34.53.52h0l-.33.75-.31.71h0l-.6-.31Zm8,71-.06.16-.09.18,0,0a.4.4,0,0,1-.1.12.84.84,0,0,1-.91.14l-2.6-.75-.7-.19a3.17,3.17,0,0,0-1.15,0,2.26,2.26,0,0,0-.47.14,1.44,1.44,0,0,1-1.13-.23c-1-.62-2-1.28-3-2l-1.06-.7h0c.74-.61,1.5-1.22,2.31-1.87l.82-.66.78.53.78.51c1.48.92,3,1.82,4.45,2.77.78.51,1.51,1.1,2.21,1.63A1,1,0,0,1,233.14,205.78Zm1.18-77.46c-1.26-1.77-2.58-3.49-3.87-5.22l15.18-14.94c2,1.78,7.9,9.64,9.06,12.3l-1.59.71a21.57,21.57,0,0,0,.18,2.69,1.93,1.93,0,0,0,.8,1.06c1.27.87,2.62,1.63,3.87,2.53a3.7,3.7,0,0,1,1.29,1.52c1,2.46,1.79,5,2.78,7.45a2.45,2.45,0,0,1-.75,2.85,2.49,2.49,0,0,1-.63.49,2.73,2.73,0,0,0-1.53,2.58,2.16,2.16,0,0,1-1.37,2.11,8.24,8.24,0,0,0-1.59,1.37l-2.81-.43c1-1.59,1.22-3.44,1.7-5.2.16-.59.81-1.05,1.2-1.51l-3.7-3.93c-.34.1-.64.22-.94.28a2.83,2.83,0,0,0-2.56,2.74c-.1,1.33-1.21,2-2.07,3-1-.75-2.07-1.33-2.49-2.61-.23-.72-.09-1.13.62-1.34a.58.58,0,0,1,.14,0c.39.16.43,1,1.09.6s.3-1,.19-1.45a.72.72,0,0,0-1.33-.26c-.68.92-1.1.52-1.61-.08-.72-.85-1.42-1.72-2.15-2.56-1.08-1.23-2.18-2.45-3.38-3.79l1.44-1c-.93-.79-1.81-.43-2.74-.12.12.38.23.71.35,1C235.28,129.7,235.26,129.65,234.32,128.32Zm3.75,76.07h0l-1.81-1.88,2.79-5.16a1.58,1.58,0,0,0,.11-.23s0,0,0,0a1.09,1.09,0,0,0,.09-.23,1.48,1.48,0,0,0,0-.81,1.21,1.21,0,0,0-.05-.18,1.54,1.54,0,0,0-.08-.19,1.83,1.83,0,0,1,.1-1.46,6.2,6.2,0,0,0,.58-1.54h0a6.54,6.54,0,0,0,.13-.75,12.54,12.54,0,0,0-.64-4.66,1.14,1.14,0,0,0-.8-.84,5.71,5.71,0,0,1-1-.31c-.18.17-.33.34-.48.5l-.45.47-.31.28c-.06.06-.34-.13-.66-.26.21-.36.41-.69.61-1s.38-.63.56-.94c.88-1.58,1.72-3.18,2.63-4.74a4.37,4.37,0,0,1,.78-1h0a1.46,1.46,0,0,1,.33-.22l.57-.29.54-.31a3,3,0,0,0,.47-.39,2.26,2.26,0,0,0,.4-.51c.09-.16.38-.36.49-.32a.91.91,0,0,0,.4.07,1.08,1.08,0,0,0,.19,0,.67.67,0,0,0,.34-.23c.07-.07.13-.16.21-.25a1.47,1.47,0,0,0,.1-.13.91.91,0,0,1,.1-.13,1.21,1.21,0,0,1,.16-.16.59.59,0,0,1,.18-.13l-.84-1.53c.26,0,.48,0,.68,0h.34l.19.05a7.22,7.22,0,0,0,3.21.55,4.14,4.14,0,0,0,.86-.12l.46-.1a7.57,7.57,0,0,0,1.73-.7l.41-.21a4.22,4.22,0,0,1,.45-.18c.29-.11.6-.2.9-.29.61-.18,1.25-.33,1.85-.52s1.1-.32,1.7-.49h0c-.19-.59-.38-1.16-.56-1.73l-.27-.84c-.08-.28-.18-.56-.27-.85h0a1.16,1.16,0,0,1,.49,0h0l.29.07a1.06,1.06,0,0,1,.25.09,2.43,2.43,0,0,1,.37.16,5.94,5.94,0,0,0,.75.31l.27.07h0a1.05,1.05,0,0,0,.5,0,1.72,1.72,0,0,0,.28-.08,1.05,1.05,0,0,0,.28-.17l.15-.11.15-.13c0-.13-.07-.27-.1-.4-.12-.49-.25-1-.41-1.67-.71.25-1.36.46-2,.69l-.62.24a3.35,3.35,0,0,1-.95.22,5.46,5.46,0,0,1-1.88-.24l-.32-.09-.14,0-.4-.11-.08,0q-.36-.1-.72-.18a.25.25,0,0,1-.12-.07.92.92,0,0,1-.21-.26l-.07-.14c-.21-.42-.42-.85-.65-1.28s-.43-.87-.64-1.31l-.67-1.36-.71-1.43H265.1c0,.77-.05,1.54-.1,2.31,0,.54-.06,1.08-.11,1.62a2.29,2.29,0,0,0,0,.25c-.06.63-.12,1.25-.2,1.88s-.16,1.33-.26,2c-.12.89-.27,1.77-.44,2.64-.08.44-.17.88-.26,1.31s-.18.87-.28,1.31-.19.87-.3,1.3c-.21.87-.43,1.73-.68,2.59s-.42,1.47-.65,2.2c-.17.55-.35,1.1-.53,1.65s-.35,1-.54,1.56c-.08.23-.16.46-.25.69-.4,1.08-.81,2.14-1.26,3.19-.11.29-.23.57-.36.85q-.3.72-.63,1.41c-.22.48-.44,1-.68,1.44l0,.06c-.13.27-.26.54-.4.81q-1.26,2.52-2.71,4.94c-.34.58-.7,1.16-1.07,1.74-.73,1.15-1.5,2.28-2.3,3.39-.36.49-.72,1-1.1,1.48l-.32.42-.43.56c-.2.27-.42.55-.64.81-.38.48-.77,1-1.16,1.41-.21.25-.41.49-.63.73-.37.44-.75.87-1.14,1.3s-.77.85-1.17,1.27l-.58-.57-.27-.27c-.27-.28-.54-.54-.81-.81l-.53-.52h0c1.05-2.38.49-4.72-.25-7.06a2.76,2.76,0,0,1-.08-.27c0-.13-.07-.27-.11-.41l-.09-.38c-.1-.42-.2-.88-.34-1.44-1,1.4-1.84,2.64-2.71,3.91C238.48,203.8,238.27,204.09,238.07,204.39Zm19.45,30.29c-1.39,1.29-2.81,2.52-4.29,3.69-.73.6-1.48,1.18-2.24,1.74s-1.53,1.11-2.32,1.66-1.57,1.06-2.38,1.58-1.62,1-2.45,1.49l-1.26.72-1.27.7v0c.41-.87.78-1.75,1.21-2.6a2.74,2.74,0,0,0,.38-1.25,1.54,1.54,0,0,0-.06-.43.9.9,0,0,0-.08-.21.88.88,0,0,0-.1-.22c-.42-.7-.1-1.18.46-1.63s1-.82,1.44-1.26c1.09-1,1-1.84-.16-2.68l-1.6-1.1h0a11.61,11.61,0,0,1,.42-1.17c.23-.57.49-1.12.77-1.66.09-.18.19-.36.29-.54a29.23,29.23,0,0,1,2-3c.49-.66,1-1.31,1.55-2-1-1.08-1.87-2.11-2.85-3.07a1.33,1.33,0,0,0-.44-.25,1.67,1.67,0,0,0-.72-.08h-.15a2.08,2.08,0,0,1-2.31-1.52c-.11-.25-.24-.49-.39-.81a.91.91,0,0,0-.07-.14c.89-.81,1.76-1.61,2.58-2.34l.79-.71,15.27,15.16C258.9,233.39,258.22,234,257.52,234.68Zm5.47-5.35h0l-.38-.37-.37-.37-2.09-2.09.45-.66.22-.34a2.38,2.38,0,0,0,.18-.3,2.85,2.85,0,0,0,.31-.68,1.74,1.74,0,0,0,.05-.22.4.4,0,0,0,0-.15,8.55,8.55,0,0,0-.32-2.47c-.24-1.19-.45-2.38-.69-3.56,0-.22-.08-.44-.13-.66l-.06-.28a3.25,3.25,0,0,0-.12-.54,1.17,1.17,0,0,0-.09-.24.77.77,0,0,0-.14-.21,1.07,1.07,0,0,0-.16-.14.8.8,0,0,0-.16-.08.53.53,0,0,0-.15-.05,1.35,1.35,0,0,0-.37,0h0c0-.07,0-.13.05-.19s0-.12.05-.18,0-.22.08-.32c.09-.33.16-.61.25-.92l-3.39-1.1c-.22,1-.43,1.95-.63,2.88-.07.31-.12.61-.18.92-.14.78-.13,1.59-.29,2.37a1,1,0,0,1-.1.3,1.47,1.47,0,0,1-.14.28c-.08.14-.16.26-.21.37l-.06.11h0l-1.64-1.59-1.64-1.59L247.85,214a80.28,80.28,0,0,0,22-52.1h21.48a100.71,100.71,0,0,1-6.5,33c-.53,1.41-1.1,2.81-1.69,4.19l-.42,1c-.52,1.19-1.07,2.36-1.64,3.52-.18.36-.35.73-.54,1.09s-.46.91-.7,1.36q-.62,1.19-1.26,2.34l-.52.92c-.33.59-.67,1.17-1,1.75s-.88,1.44-1.34,2.16-.86,1.34-1.31,2l-.08.12c-.59.86-1.18,1.71-1.78,2.55-.39.55-.79,1.1-1.2,1.63-.24.33-.49.65-.74,1s-.65.85-1,1.26c-1,1.27-2.05,2.52-3.12,3.75s-2.31,2.57-3.52,3.83ZM317,165c-.06,1-.13,2.05-.22,3.06-.06.84-.14,1.68-.23,2.51,0,.36-.06.73-.11,1.09-.08.82-.18,1.65-.28,2.46-.12,1-.25,2-.4,3s-.29,2-.46,3-.34,2-.53,2.93h0c-.18,1-.38,1.94-.59,2.9s-.37,1.7-.57,2.54l-.15.63c-.2.86-.42,1.71-.64,2.56s-.48,1.77-.73,2.65c-.07.23-.13.46-.2.68-.18.62-.36,1.25-.56,1.87-.32,1-.65,2.07-1,3.1l-.25.72c-.48,1.4-1,2.78-1.52,4.16-.14.39-.29.77-.44,1.16-.3.75-.61,1.5-.91,2.24-.37.89-.76,1.78-1.16,2.66s-.79,1.77-1.22,2.64-.84,1.75-1.28,2.61h0c-.44.87-.88,1.73-1.35,2.58s-.92,1.72-1.41,2.57q-1.42,2.55-3,5c-.52.84-1.05,1.67-1.6,2.49s-1.1,1.64-1.66,2.45c-1,1.48-2.09,2.95-3.2,4.4l-.79,1-.05.07c-.29.39-.6.77-.91,1.16l0,.05-1,1.28c-.28.36-.58.72-.88,1.08l-.9,1.07q-.9,1.06-1.83,2.13c-1.23,1.41-2.51,2.81-3.82,4.19l-15-15.31q1.65-1.75,3.2-3.56c.36-.41.71-.82,1.06-1.24s.81-1,1.21-1.45,1-1.26,1.52-1.9.87-1.11,1.29-1.67.86-1.16,1.28-1.73.86-1.2,1.28-1.8q1.46-2.11,2.81-4.26c.86-1.37,1.69-2.75,2.47-4.15.4-.7.78-1.4,1.16-2.11q1.14-2.12,2.16-4.27c.34-.72.68-1.45,1-2.18q1.49-3.27,2.7-6.64.83-2.23,1.54-4.53c.49-1.53.93-3.06,1.34-4.61h0c.41-1.56.78-3.12,1.12-4.7a113.61,113.61,0,0,0,2.44-19.71h21.54C317.07,163,317,164,317,165Zm-21-7.41c-.14-1.34-.27-2.67-.4-4q-.29-3-.6-6c-.07-.66-.14-1.33-.22-2s-.18-1.59-.28-2.39c-.06-.53-.13-1.06-.2-1.58s-.19-1.32-.3-2-.23-1.31-.36-2-.26-1.3-.4-2q-.41-1.86-.9-3.69l-.48-1.75c-.08-.29-.16-.58-.25-.86-.31-1.11-.65-2.2-1-3.3-.2-.64-.41-1.27-.63-1.9-.43-1.27-.9-2.52-1.39-3.78-.15-.39-.31-.78-.47-1.17l-.48-1.17q-.42-1-.87-2c-.37-.83-.74-1.67-1.13-2.5s-.78-1.68-1.19-2.53l1.62.51h0a1.62,1.62,0,0,0,.18-.2.89.89,0,0,0,.2-.4,1.68,1.68,0,0,0-.27-1.1c-.57-1-1.17-2.09-1.78-3.12s-1.25-2-1.9-3q-2-3-4.21-5.81c-.16-.2-.34-.4-.52-.59s-.39-.37-.59-.54l-.3-.26-.63-.51-.31-.24a32.49,32.49,0,0,1-5.68-5.56c-1-1.28-2.11-2.5-3.12-3.69l-.09-.11c5.1-5.06,10.1-10,15.27-15.13.44.45.87.91,1.29,1.37s.86.92,1.27,1.39q1,1.06,1.92,2.16,1.08,1.26,2.13,2.55T291,81.38c.45.59.89,1.18,1.33,1.78s.78,1.06,1.16,1.59l.16.23c.43.59.85,1.2,1.26,1.81s.85,1.23,1.25,1.85c.82,1.24,1.61,2.5,2.39,3.78.4.64.78,1.28,1.15,1.93s.76,1.3,1.11,2,.67,1.17,1,1.76l.29.55c.3.55.59,1.11.88,1.66s.57,1.12.84,1.68c.56,1.13,1.1,2.26,1.63,3.39s1,2.27,1.52,3.41.84,2,1.24,3c.2.5.4,1,.59,1.51q1.82,4.7,3.22,9.49c.21.71.41,1.43.61,2.14.14.51.28,1,.41,1.53s.25,1,.37,1.45a2.86,2.86,0,0,1,.07.28c.14.54.27,1.09.4,1.65s.28,1.2.41,1.81.25,1.2.38,1.8c.25,1.21.47,2.43.68,3.64.39,2.26.72,4.53,1,6.83.09.71.17,1.42.24,2.14s.14,1.41.2,2.12c.1,1.25.19,2.5.26,3.76,0,.54.06,1.08.09,1.63l.06,1.63q0,1.22.06,2.43Z" transform="translate(-0.32 -0.38)" style="fill:#64748b"/><path d="M314.21,308.1c-.86.72-1.53,1.3-2.23,1.86a60.12,60.12,0,0,1-30.59,12.91,99.68,99.68,0,0,1-21.15.23c-9.56-.78-18.66-3.46-27.76-6.25-5.74-1.76-11.52-3.37-17.32-4.89a60,60,0,0,0-12.94-1.65,3.9,3.9,0,0,0-1.41.16,122.54,122.54,0,0,1,16.74,10.94,101.62,101.62,0,0,1,14.64,14.08c-3.22.59-6.23.95-9.35,1.33-.29-.45-.57-.89-.84-1.33-6.89-11.12-16.3-19.05-28.88-23.05a9.56,9.56,0,0,0-6.05,0c-11.18,3.49-19.94,10.23-26.74,19.65-1.09,1.5-2,3.1-3.14,4.78l-9.36-1.26a97.62,97.62,0,0,1,14.65-14.14,105.86,105.86,0,0,1,16.79-10.78c0-.11-.07-.22-.11-.33-.61,0-1.22,0-1.83,0a80.66,80.66,0,0,0-20,3.53c-7.18,2.11-14.32,4.38-21.53,6.42a81.93,81.93,0,0,1-18.68,3c-3.82.18-7.65.37-11.47.24-14.36-.5-27.3-4.92-38.41-14.24-.33-.27-.65-.55-1-.83A4,4,0,0,1,66,308l2.28.93a44,44,0,0,0,19,3c9.46-.45,18.59-2.67,27.69-5.06a215.84,215.84,0,0,1,24-5.14c11.73-1.68,23.48-2.24,35.23-.09a83.73,83.73,0,0,1,14.75,4,3,3,0,0,0,2.28,0,89.23,89.23,0,0,1,34.91-5.3,172,172,0,0,1,37.35,6.12A191.79,191.79,0,0,0,284,311c7.77,1.21,15.54,1.61,23.23-.54C309.5,309.84,311.71,309,314.21,308.1Z" transform="translate(-0.32 -0.38)" style="fill:#64748b"/><path d="M236.32,103.2a35.65,35.65,0,0,1-12.46,9.5c-6.28,3.12-13,5-19.72,6.73-6.42,1.68-12.85,3.36-19.22,5.19a33.53,33.53,0,0,0-10.06,4.72,12.48,12.48,0,0,0-.22,20.23c1.74,1.28,3.65,2.35,5.78,3.7q.17,7.42.35,15.67c-2-.69-3.77-1.26-5.5-1.89-5.32-1.94-10.41-4.32-14.76-8a24.17,24.17,0,0,1-8.7-17.47,30.68,30.68,0,0,1,2.11-14.22,26.75,26.75,0,0,1,11.27-12.42,56.69,56.69,0,0,1,11.33-5.07c7.82-2.63,15.87-4.37,23.84-6.43a61.19,61.19,0,0,0,15-5.69A19.54,19.54,0,0,0,222.7,91a17.42,17.42,0,0,0-4.36-22.87A28.71,28.71,0,0,0,204,62.34c-.78-.1-1.55-.23-2.48-.38.13-4.91.26-9.71.4-14.7,1.33.15,2.48.24,3.62.4,9.12,1.25,17.54,4.27,24.87,10,6.5,5,11,11.49,12.17,19.72C244,86.73,242.39,95.57,236.32,103.2Z" transform="translate(-0.32 -0.38)" style="fill:#64748b"/><path d="M200.25,21c-.67,3.81-1.58,7.59-2.16,11.42a55.4,55.4,0,0,0-.35,6.83q-.47,19.11-.9,38.24c-.15,6.7-.26,13.39-.39,20.09,0,.32,0,.63,0,1-.05,1.43-.05,1.45-1.44,1.8-3.66.92-7.32,1.81-11.25,2.78-.09-2.59-.2-5-.26-7.45-.15-6.32-.26-12.65-.41-19q-.3-13.07-.62-26.13c-.11-4.52-.27-9-.3-13.55a68.38,68.38,0,0,0-1.3-9.78c-.54-3.56-1.06-7.14-1.38-10.73a22.32,22.32,0,0,1,1-9.28A9.3,9.3,0,0,1,189.83.39a16.08,16.08,0,0,1,2.86.13c4.59.77,7.2,3.51,8,8.27A35.48,35.48,0,0,1,200.25,21Z" transform="translate(-0.32 -0.38)" style="fill:#64748b"/><path d="M115.07,303.07a7.41,7.41,0,0,1-1.09-.15c-3.43-1-7-.8-10.45-.75-5.9.09-11.8.41-17.69.29a62.66,62.66,0,0,1-26-5.65,53.72,53.72,0,0,1-16.14-11.76A67.15,67.15,0,0,1,32.54,269c1.56,1.35,3.06,2.79,4.7,4,4.49,3.37,9.65,5.34,15,6.88,6.8,2,13.79,3.07,20.71,4.46a108.3,108.3,0,0,1,19.93,5.54c2.15.89,4.23,1.94,6.64,3.05-1.18-1.23-2.16-2.22-3.11-3.23A54.46,54.46,0,0,1,84.45,271a79.65,79.65,0,0,1-3.09-12.83c-.71-3.82-1.45-7.62-3.76-11.32a8,8,0,0,1,.78.51,153,153,0,0,1,17.25,18.11,70.55,70.55,0,0,1,11,19.83C108.86,291.42,111,297.53,115.07,303.07Z" transform="translate(-0.32 -0.38)" style="fill:#64748b"/><path d="M346.88,269.49a4.59,4.59,0,0,1-.21,1c-5.21,9.32-11.79,17.4-20.92,23.2a54.4,54.4,0,0,1-19.82,7.58c-7.95,1.42-15.95,1.4-24,1-4.08-.18-8.18-.13-12.27-.06a24.27,24.27,0,0,0-3.9.72l-.93.18c.71-1.11,1.32-2,1.91-3a69.38,69.38,0,0,0,5.46-11.84c1.57-4,3.14-8,5-11.88a67.18,67.18,0,0,1,11.63-16.3c4-4.26,8.25-8.28,12.39-12.4a9.65,9.65,0,0,1,.85-.69c-.22.54-.32.84-.47,1.13a34.14,34.14,0,0,0-2.95,9.88A86,86,0,0,1,296,269.73a54.07,54.07,0,0,1-11.88,19.44c-.79.86-1.55,1.74-2.33,2.61l-1.12,1a2.06,2.06,0,0,0,1.1-.37,2,2,0,0,0,.34-.31c2.2-.93,4.37-1.94,6.59-2.79a113,113,0,0,1,18.61-4.95c6.93-1.38,13.91-2.48,20.71-4.46,5.59-1.64,10.94-3.8,15.53-7.52C344.64,271.51,345.64,270.57,346.88,269.49Z" transform="translate(-0.32 -0.38)" style="fill:#64748b"/><path d="M322.88,212.57h0v0Z" transform="translate(-0.32 -0.38)" style="fill:#64748b"/><path d="M370.31,222.93A82.51,82.51,0,0,1,360.11,247a52,52,0,0,1-29.28,22.31c-5.42,1.7-11,3-16.45,4.44-5.1,1.34-10.17,2.71-14.71,5.52-.06,0-.18,0-.34,0,.92-1.62,1.88-3.2,2.73-4.82a53.83,53.83,0,0,0,5.2-17.31,171.73,171.73,0,0,1,3.24-18,90.21,90.21,0,0,1,12-26.25,1.9,1.9,0,0,1,.33-.29,8.34,8.34,0,0,1,0,1.22c-.63,5-.11,10.08.16,15.11.36,6.59.58,13.17-.75,19.69A40.6,40.6,0,0,1,317,262l-.61,1c.19,0,.31,0,.35-.05,4.56-4.56,10-7.89,15.57-11,5.38-3,10.81-5.93,16.14-9a65,65,0,0,0,15.39-12,34.61,34.61,0,0,0,5.86-8.09c0-.09.15-.14.23-.22Z" transform="translate(-0.32 -0.38)" style="fill:#64748b"/><path d="M80.44,279.05l-.22.23c-5.07-3.11-10.73-4.53-16.4-5.93-2.84-.7-5.68-1.38-8.5-2.13a72.17,72.17,0,0,1-16.92-6.49,52.58,52.58,0,0,1-19.57-19.21,90.8,90.8,0,0,1-9.17-21.83,6.19,6.19,0,0,1-.17-.94c0-.07.08-.16.19-.35a6,6,0,0,1,.49.62c4.14,7,10,12.38,16.63,16.9,5.47,3.71,11.31,6.76,17.1,9.91a112.33,112.33,0,0,1,14,8.51c1.94,1.46,3.76,3.06,5.79,4.72-.26-.46-.43-.77-.62-1.06a41,41,0,0,1-6-17.65A101.62,101.62,0,0,1,57,227.8c.22-4.3.62-8.6.11-12.9-.09-.77-.2-1.55-.35-2.68a10.75,10.75,0,0,1,.69.84c5.46,8.45,9.89,17.38,12.16,27.22,1,4.5,1.67,9.09,2.5,13.63.62,3.45,1.15,6.92,1.91,10.33a44.09,44.09,0,0,0,5.7,13.62C80,278.25,80.2,278.65,80.44,279.05Z" transform="translate(-0.32 -0.38)" style="fill:#64748b"/><path d="M52,248.34c-4.5-5.1-10.06-8.28-15.31-11.85-2.33-1.59-4.68-3.15-7-4.78a78.34,78.34,0,0,1-15.82-14.49A60,60,0,0,1,1.59,189.75,78.59,78.59,0,0,1,.32,176a4.9,4.9,0,0,1,.44.62A46.86,46.86,0,0,0,9.82,191c4.1,4.6,8.35,9.06,12.55,13.58a124.11,124.11,0,0,1,17.26,22.64,37,37,0,0,0,2.19,3.58c0-.32-.06-.66-.13-1a82.28,82.28,0,0,1-2.3-17.18,58.23,58.23,0,0,1,2.37-17.46c1.19-4.08,2.54-8.11,3.66-12.21.67-2.45,1-5,1.52-7.48.09-.45.15-.91.22-1.37l.37-.05c.62,1.92,1.28,3.81,1.83,5.74a64.54,64.54,0,0,1,2.23,22.88c-.4,5.19-1.05,10.36-1.64,15.53A79.69,79.69,0,0,0,51.79,247C51.87,247.31,51.91,247.66,52,248.34Z" transform="translate(-0.32 -0.38)" style="fill:#64748b"/><path d="M377.67,156.78a46.29,46.29,0,0,1-10.95,26.37c-2.93,3.5-6.05,6.85-9.13,10.21-3.75,4.09-7.35,8.27-9.62,13.41,0,.09-.14.16-.36.39,0-.35-.05-.56-.05-.77a56.64,56.64,0,0,0-5.39-25.81c-1.86-4.12-3.75-8.22-5.55-12.36a66.16,66.16,0,0,1-5.34-28.59c0-.44.09-.89.18-1.71.69,1.14,1.12,2,1.67,2.76,3,4.19,6,8.38,9,12.53a46.94,46.94,0,0,1,8.83,22.6,98.24,98.24,0,0,1,.59,12.25,4.09,4.09,0,0,0,.21,1.59c.1-.28.22-.54.3-.83,2.68-10.49,7.38-20.11,12.75-29.44,2.41-4.19,4.71-8.45,6.85-12.78A33.45,33.45,0,0,0,375.24,133a3.83,3.83,0,0,1,.13-.64,4.25,4.25,0,0,1,.33.71A79,79,0,0,1,377.67,156.78Z" transform="translate(-0.32 -0.38)" style="fill:#64748b"/><path d="M45.37,162.76c-1.64,4.6-3.66,9.06-5.62,13.54a112.3,112.3,0,0,0-4.82,12,53,53,0,0,0-2.45,15.84v2.79c-.21-.09-.41-.12-.45-.21-2.14-4.84-5.49-8.82-9-12.7S16,186.34,12.67,182.31A46.45,46.45,0,0,1,2.18,152.69a87,87,0,0,1,2-19,2.73,2.73,0,0,1,.51-1.18c.16,1.34.27,2.69.48,4a46.09,46.09,0,0,0,5.65,15c2.46,4.47,5,8.89,7.47,13.36A103.54,103.54,0,0,1,27.8,188a2,2,0,0,0,.66,1.08V186a71,71,0,0,1,1.65-16,48.06,48.06,0,0,1,8.73-17.92c2.61-3.49,5.13-7,7.65-10.6.72-1,1.3-2.17,1.94-3.25A59.23,59.23,0,0,1,45.37,162.76Z" transform="translate(-0.32 -0.38)" style="fill:#64748b"/><path d="M367.67,137.26c-2.1,6-5.07,11.57-7.91,17.22-.85,1.71-1.7,3.43-2.41,5.2s-1.23,3.49-1.92,5.52c-.58-1.79-1.06-3.35-1.59-4.89a66.32,66.32,0,0,0-11.32-19.82c-2.84-3.58-5.71-7.14-8.42-10.82A92.35,92.35,0,0,1,321,103.74c-.41-1.24-.81-2.48-1.32-4,1.25,1.39,2.17,2.6,3.27,3.61,2.95,2.68,5.89,5.38,9,7.88a64.52,64.52,0,0,1,22.49,34.5,3.89,3.89,0,0,0,.65,1.51c.06-1.05.13-2.1.2-3.15a189.51,189.51,0,0,1,2.87-19.53c1-5.91,2.09-11.81,2.54-17.8a54.18,54.18,0,0,0-.84-16c-.31-1.41-.75-2.8-1-4.28.5.73,1,1.44,1.5,2.18a64,64,0,0,1,9.35,21.84A49.66,49.66,0,0,1,367.67,137.26Z" transform="translate(-0.32 -0.38)" style="fill:#64748b"/><path d="M59.09,101.07c.27-.27.59-.49.88-.74-.29,1-.53,2.13-.86,3.16A96.43,96.43,0,0,1,42,134.94c-2.64,3.26-5.22,6.58-7.68,10a58.7,58.7,0,0,0-9.17,19.33c-.1.36-.23.7-.44,1.32-1-5.26-3.43-9.65-5.7-14.1a107.7,107.7,0,0,1-7-16.2,49.49,49.49,0,0,1-2.3-19.18,53.35,53.35,0,0,1,4.86-17.89,76.2,76.2,0,0,1,6-10.68c.2-.3.44-.57.87-1.13-.1.59-.11.85-.18,1.08-2,6.4-2.11,13-1.63,19.57.56,7.86,2.16,15.56,3.46,23.31a117.37,117.37,0,0,1,2,17.57l.63-2.39A61.94,61.94,0,0,1,44.85,114c2.81-2.51,5.83-4.79,8.63-7.31C55.45,105,57.22,103,59.09,101.07Z" transform="translate(-0.32 -0.38)" style="fill:#64748b"/><path d="M60,100.3l0,0s0,0,0,0Z" transform="translate(-0.32 -0.38)" style="fill:#64748b"/><path d="M214.91,196.88c-3.86,2.75-8.26,4.32-12.69,5.83q-8,2.73-15.93,5.61a13,13,0,0,0-2.81,1.47,4.69,4.69,0,0,0-2.19,4.33c.11,3.29.13,6.59.18,9.88,0,.58,0,1.16,0,1.91-.45-.2-.79-.31-1.08-.48a27.6,27.6,0,0,1-5.91-4.56,12.66,12.66,0,0,1,1.24-19.22,24.8,24.8,0,0,1,7.36-4.39c3.89-1.41,7.81-2.75,11.74-4.06,2.83-.94,5.7-1.78,8.18-3.5a14.08,14.08,0,0,0,3.15-2.86,6.09,6.09,0,0,0-.72-8.5,27,27,0,0,0-4.23-2.77,19.26,19.26,0,0,0-2-.9c.11-4.93.22-9.73.33-14.72.88.29,1.53.47,2.16.71a50.58,50.58,0,0,1,12.1,6c4.31,3.11,7.28,7.12,8.14,12.47C223.06,186.4,221.1,192.48,214.91,196.88Z" transform="translate(-0.32 -0.38)" style="fill:#64748b"/><path d="M77.91,66.65a59.32,59.32,0,0,1-4.55,10.79A47.36,47.36,0,0,1,60.6,92c-3.75,2.89-7.58,5.66-11.38,8.48a66.53,66.53,0,0,0-20.8,25.4c-.11.24-.25.46-.42.78-.1-.16-.24-.27-.23-.37.11-5.33-.72-10.59-1.13-15.89-.7-9.14-.78-18.26,1.43-27.25A49.69,49.69,0,0,1,45,56a9.06,9.06,0,0,1,.79-.53l.31.29c-3.93,6.33-5.55,13.4-6.6,20.64-.87,6-1.61,12.11-2.56,18.14-.46,2.92-1.27,5.78-1.93,8.67-.13.57-.29,1.13-.49,1.93A58.39,58.39,0,0,1,41.15,95,65.54,65.54,0,0,1,56.55,81.5c3.61-2.33,7.32-4.52,11-6.76C73.23,71.27,73.41,71.13,77.91,66.65Z" transform="translate(-0.32 -0.38)" style="fill:#64748b"/><path d="M353.86,105.67c-.34,4.5-.75,9-1.09,13.49-.17,2.32-.25,4.64-.39,7.15a5.66,5.66,0,0,1-.48-.67,67.82,67.82,0,0,0-22.3-26.56c-3.66-2.65-7.31-5.32-10.86-8.11A47.88,47.88,0,0,1,302.61,67.2c0-.15-.05-.31-.13-.85,3.5,4.56,8.12,7,12.55,9.75,5.67,3.47,11.34,6.92,16.42,11.25A56.51,56.51,0,0,1,345,103.92c.15.28.34.54.51.8,0,0,.1,0,.22,0-2.38-7.41-3-15.1-4-22.72a101.51,101.51,0,0,0-3.14-16.57,35.94,35.94,0,0,0-4-9,2.11,2.11,0,0,1-.36-1.25c.4.29.81.56,1.2.88a49.15,49.15,0,0,1,17.51,30.05A76,76,0,0,1,353.86,105.67Z" transform="translate(-0.32 -0.38)" style="fill:#64748b"/><path d="M178.13,50.4a5.83,5.83,0,0,0-.18-.91,5.45,5.45,0,0,0-.71.13c-3.08,1.19-6.21,2.23-9.19,3.61A43.12,43.12,0,0,1,160.27,56a25.5,25.5,0,0,0-13.15,7.68c-1.93,2.18-3.63,4.57-5.47,6.83a17.48,17.48,0,0,0-3.29,6.83,36.34,36.34,0,0,1-1.93,5.54c-.78,1.76-1.62,3.45-1.5,5.45a2.7,2.7,0,0,1-.19.92c-1.35,3.83-3.82,6.44-7.92,7.28-.68.14-1.37.24-2.28.4,2.31.53,4.27-.09,6.37-.69-.22.79-.41,1.34-.53,1.91-.18.89-.33,1.8-.5,2.7.29-.47.6-.93.85-1.42a33.56,33.56,0,0,1,4.77-7.31c.87-1,1.72-1.89,3.22-1.51a2.45,2.45,0,0,0,.79-.1,20.78,20.78,0,0,0,7.39-2.83c3.35-2,6.68-4,9.92-6.06,4.19-2.74,8.17-5.68,11.29-9.72a21.26,21.26,0,0,1,9.12-6.76,1.59,1.59,0,0,0,1.1-1.82C178.24,59,178.2,54.7,178.13,50.4ZM154.42,70l-.42.46c-.34.36-.68.73-1,1.09s-.69.74-1,1.1-.71.75-1,1a2.86,2.86,0,0,1-.41.32,2.38,2.38,0,0,1-.41.23,9.29,9.29,0,0,1-2.71.47l1.82-3c.58-1,1.17-1.92,1.77-2.86a1.86,1.86,0,0,1,.19-.22l.12-.11a1.33,1.33,0,0,1,.51-.27l.16,0c.3,0,.6,0,.91,0l.46,0h.07l.56,0,.58,0,1.34.1ZM129.85,100.9l0,0s0,0,0-.08Z" transform="translate(-0.32 -0.38)" style="fill:#64748b"/><path d="M195.81,128.38q-.15,7.08-.31,14.18-.33,15.06-.65,30.11c-.11,4.84-.2,9.67-.3,14.5,0,1.54,0,1.55-1.45,2-2.48.75-5,1.48-7.69,2.29-.37-20.71-.75-41.26-1.12-61.76,1.58-.93,8.17-2.92,11.5-3.46C195.8,127,195.83,127.67,195.81,128.38Z" transform="translate(-0.32 -0.38)" style="fill:#64748b"/><path d="M91.7,33.15c-.86.77-1.73,1.53-2.58,2.32-4.27,4-7.31,8.81-10.07,13.87-1.12,2-2.29,4.08-3.41,6.13A39.26,39.26,0,0,1,63.49,69c-2.87,2-5.77,4-8.64,6a61.52,61.52,0,0,0-10.93,9.15,4.61,4.61,0,0,1,.24-2A70.12,70.12,0,0,1,55,58.35,65.14,65.14,0,0,1,78.74,37.53,56.72,56.72,0,0,1,90.5,33.11c.35-.09.72-.12,1.08-.18Z" transform="translate(-0.32 -0.38)" style="fill:#64748b"/><path d="M336.07,84.18c-1.93-1.73-3.69-3.5-5.65-5-3.24-2.49-6.64-4.78-9.92-7.22-2.85-2.13-5.72-4.25-8.41-6.57-3.6-3.09-6.1-7.06-8.39-11.16-1.52-2.74-3-5.49-4.59-8.2a43.74,43.74,0,0,0-10.32-12.45,1.09,1.09,0,0,1-.45-.72c.81.2,1.61.39,2.41.61A58.4,58.4,0,0,1,314.82,47a70,70,0,0,1,21,35.59C335.9,83.11,336,83.62,336.07,84.18Z" transform="translate(-0.32 -0.38)" style="fill:#64748b"/><path d="M194.22,215.71c-.12,6.43-.27,12.85-.4,19.28l-.63,30.43c-.06,2.71-.08,5.42-.23,8.12a25.39,25.39,0,0,1-.64,4.24,6.71,6.71,0,0,1-1.09,2.27,1.31,1.31,0,0,1-2.28.07,4.73,4.73,0,0,1-1-1.93,31.15,31.15,0,0,1-.84-5.49c-.22-9.13-.31-18.27-.48-27.41q-.28-15.21-.62-30.42a4.89,4.89,0,0,1,0-1.27,1.59,1.59,0,0,1,.63-1c2.48-1,5-2,7.62-3C194.23,211.8,194.26,213.76,194.22,215.71Z" transform="translate(-0.32 -0.38)" style="fill:#64748b"/><path d="M213.7,250.1a4,4,0,0,1-.49-.68c-2.21-6.46-6.64-11-12.41-14.35-.91-.53-2.09-.93-2.57-1.73s-.12-2-.13-3v-5.46c4.83,2.58,9,5.45,11.89,9.79C213.08,239.29,214,244.43,213.7,250.1Z" transform="translate(-0.32 -0.38)" style="fill:#64748b"/><path d="M220.42,85.19,219,89a83.17,83.17,0,0,0-17.75-4.85V80C204,79.72,216.61,83,220.42,85.19Z" transform="translate(-0.32 -0.38)" style="fill:#64748b"/><path d="M179.79,147.84c-3-1.78-5.64-3.75-5.89-7.54-.27-4.3,2.18-7,5.91-9.27v9.73c-1.23.84-1.27.89-2.07,2.87C178.25,145.07,180.57,145.59,179.79,147.84Z" transform="translate(-0.32 -0.38)" style="fill:#64748b"/><path d="M216.63,42.19a2.2,2.2,0,0,1-2.34,1.16c-1.36-.09-2.74,0-4.11,0-.89,0-1.79-.13-2.68-.21l-3.63-.36a3.17,3.17,0,0,1-.93-.14c-.19-.08-.3-.36-.44-.55.19-.13.39-.38.58-.38.63,0,1.26.13,1.89.21a3,3,0,0,0,2.24-.52,3.07,3.07,0,0,1,1.62-.43c1.27,0,2.55.12,3.81,0A6.6,6.6,0,0,1,216.63,42.19Z" transform="translate(-0.32 -0.38)" style="fill:#64748b"/><path d="M202.64,184.48a7.87,7.87,0,0,1-3.35,2.39v-7.18l.37-.27a27.41,27.41,0,0,1,2.63,1.69A2.21,2.21,0,0,1,202.64,184.48Z" transform="translate(-0.32 -0.38)" style="fill:#64748b"/><path d="M254.25,64.26l-5.73-3.61,2-1.53C254,60.32,255.18,62,254.25,64.26Z" transform="translate(-0.32 -0.38)" style="fill:#64748b"/><path d="M129.19,98.37c-.17.78-.3,1.38-.46,2.14-.89-.44-1.29-1.16-2.12-2Z" transform="translate(-0.32 -0.38)" style="fill:#64748b"/><path d="M370.49,222.25l-.18.68-.4-.36.25-.55Z" transform="translate(-0.32 -0.38)" style="fill:#64748b"/><path d="M60,100.25a.43.43,0,0,0,0,0l0,0Z" transform="translate(-0.32 -0.38)" style="fill:#64748b"/><path d="M129.83,101c0,.19,0,.11,0,0Z" transform="translate(-0.32 -0.38)" style="fill:#64748b"/><path d="M129.87,100.92l0,0a.64.64,0,0,1,0-.07Z" transform="translate(-0.32 -0.38)" style="fill:#64748b"/><path d="M322.86,212.54l.06,0a.21.21,0,0,0,0,.06Z" transform="translate(-0.32 -0.38)" style="fill:#64748b"/><path d="M323,212.47l-.1,0,0,0Z" transform="translate(-0.32 -0.38)" style="fill:#64748b"/><path d="M46.17,55.28c0,.17,0,.33,0,.49l-.31-.29Z" transform="translate(-0.32 -0.38)" style="fill:#64748b"/><polygon points="337.88 230.7 337.84 230.74 337.88 230.69 337.88 230.7" style="fill:#64748b"/><path d="M279.64,214.83c.86-1.37,1.68-2.76,2.47-4.15C281.33,212.08,280.5,213.46,279.64,214.83Z" transform="translate(-0.32 -0.38)" style="fill:#64748b"/><path d="M285.43,204.3q-1,2.16-2.16,4.27Q284.4,206.46,285.43,204.3Z" transform="translate(-0.32 -0.38)" style="fill:#64748b"/><path d="M289.13,195.48q-1.22,3.38-2.7,6.64Q287.9,198.85,289.13,195.48Z" transform="translate(-0.32 -0.38)" style="fill:#64748b"/><path d="M290.67,191c.48-1.52.92-3.06,1.34-4.61C291.6,187.89,291.16,189.42,290.67,191Z" transform="translate(-0.32 -0.38)" style="fill:#64748b"/><path d="M292,186.33c.4-1.55.78-3.12,1.12-4.7C292.79,183.21,292.42,184.77,292,186.33Z" transform="translate(-0.32 -0.38)" style="fill:#64748b"/><rect x="295.25" y="161.53" width="21.53" height="0.01" style="fill:#64748b"/><path d="M267.05,86.43l.09.11-.1-.11Z" transform="translate(-0.32 -0.38)" style="fill:#64748b"/><path d="M286.06,111.58l.19-.2a1.62,1.62,0,0,1-.18.2Z" transform="translate(-0.32 -0.38)" style="fill:#64748b"/><path d="M286.25,111.38a1,1,0,0,0,.2-.4A.89.89,0,0,1,286.25,111.38Z" transform="translate(-0.32 -0.38)" style="fill:#64748b"/><path d="M288.58,120.48c.49,1.26,1,2.51,1.39,3.78C289.53,123,289.07,121.74,288.58,120.48Z" transform="translate(-0.32 -0.38)" style="fill:#64748b"/><path d="M294.29,141.64c.07.52.14,1.05.2,1.58l-.21-1.58c-.18-1.32-.39-2.63-.65-3.93Q294,139.66,294.29,141.64Z" transform="translate(-0.32 -0.38)" style="fill:#64748b"/><path d="M82.07,215.05h0a4.51,4.51,0,0,1,.91.21A4.6,4.6,0,0,0,82.07,215.05Z" transform="translate(-0.32 -0.38)" style="fill:#64748b"/><path d="M252.78,218.78l1.64,1.59h0Z" transform="translate(-0.32 -0.38)" style="fill:#64748b"/><path d="M259,215.86c.08-.27.14-.49.19-.69l-.18.69Z" transform="translate(-0.32 -0.38)" style="fill:#64748b"/><path d="M260.24,217.45c0-.09,0-.18-.05-.28l.06.28c.05.22.09.44.13.66C260.33,217.89,260.29,217.67,260.24,217.45Z" transform="translate(-0.32 -0.38)" style="fill:#64748b"/><path d="M260.14,226.48l.46-.65-.45.66Z" transform="translate(-0.32 -0.38)" style="fill:#64748b"/><path d="M262.24,228.58l.75.74h0Z" transform="translate(-0.32 -0.38)" style="fill:#64748b"/><path d="M248.56,104.36l3.86,5-3.87-5Z" transform="translate(-0.32 -0.38)" style="fill:#64748b"/><path d="M255.5,98.92h0a2.24,2.24,0,0,0-1.33.34c-1,.83-1.89,1.68-2.83,2.53.93-.85,1.88-1.71,2.83-2.54A2.21,2.21,0,0,1,255.5,98.92Z" transform="translate(-0.32 -0.38)" style="fill:#64748b"/><path d="M258.71,118.72l.28-.25a3.25,3.25,0,0,1-.27.26A0,0,0,0,1,258.71,118.72Z" transform="translate(-0.32 -0.38)" style="fill:#64748b"/><path d="M259.12,116.89a1.35,1.35,0,0,1,.16.19,1.45,1.45,0,0,0-.17-.19Z" transform="translate(-0.32 -0.38)" style="fill:#64748b"/><path d="M260.26,115.78l.15.17h0A1.15,1.15,0,0,1,260.26,115.78Z" transform="translate(-0.32 -0.38)" style="fill:#64748b"/><path d="M262.7,108.92l-.18-.22a1.74,1.74,0,0,1,.19.22Z" transform="translate(-0.32 -0.38)" style="fill:#64748b"/><path d="M262.93,123.68a4.6,4.6,0,0,0,.08.93,4.11,4.11,0,0,1-.09-.94v-.1A.37.37,0,0,1,262.93,123.68Z" transform="translate(-0.32 -0.38)" style="fill:#64748b"/><path d="M263.69,126c.1.12.19.25.28.38-.09-.13-.19-.26-.29-.38l-.17-.24Z" transform="translate(-0.32 -0.38)" style="fill:#64748b"/><path d="M264.53,127.21l.3.43-.18.19.17-.19Z" transform="translate(-0.32 -0.38)" style="fill:#64748b"/><path d="M265.84,116.39c-1.36-2-2.73-4-4.09-6.07,1.36,2,2.74,4,4.1,6.07l.22.33Z" transform="translate(-0.32 -0.38)" style="fill:#64748b"/><path d="M266.15,133.65l.19.35a3.63,3.63,0,0,1-.2-.35c-.25-.47-.47-1-.7-1.43C265.67,132.7,265.9,133.18,266.15,133.65Z" transform="translate(-0.32 -0.38)" style="fill:#64748b"/><path d="M266.29,117.06a2.51,2.51,0,0,1,.32.71A3.45,3.45,0,0,0,266.29,117.06Z" transform="translate(-0.32 -0.38)" style="fill:#64748b"/><path d="M266.62,117.78c.09.32.18.63.28.94-.1-.31-.2-.63-.29-1Z" transform="translate(-0.32 -0.38)" style="fill:#64748b"/><path d="M268.88,139.07a3.84,3.84,0,0,1-.25.94A5,5,0,0,0,268.88,139.07Z" transform="translate(-0.32 -0.38)" style="fill:#64748b"/><path d="M269.76,131.52a14.72,14.72,0,0,1,.07,2.39,5,5,0,0,1-.07.65c0-.22.05-.43.06-.65A15.94,15.94,0,0,0,269.76,131.52Z" transform="translate(-0.32 -0.38)" style="fill:#64748b"/><path d="M115.19,157.6h0a15.91,15.91,0,0,1-.1-4.63A15.45,15.45,0,0,0,115.19,157.6Z" transform="translate(-0.32 -0.38)" style="fill:#64748b"/><path d="M120.49,130c.57-1.39,1.18-2.76,1.83-4.1C121.67,127.27,121.06,128.63,120.49,130Z" transform="translate(-0.32 -0.38)" style="fill:#64748b"/><path d="M125.5,120q1.14-1.9,2.41-3.75Q126.65,118.12,125.5,120Z" transform="translate(-0.32 -0.38)" style="fill:#64748b"/><path d="M136.57,136.74a5.07,5.07,0,0,0,.55,0,5.33,5.33,0,0,1-.56,0Z" transform="translate(-0.32 -0.38)" style="fill:#64748b"/><path d="M135,107.48l3.83,3.78L135,107.49Z" transform="translate(-0.32 -0.38)" style="fill:#64748b"/><path d="M141.53,136.09h0c-.61.1-1.18.22-1.72.33C140.35,136.32,140.92,136.19,141.53,136.09Z" transform="translate(-0.32 -0.38)" style="fill:#64748b"/><path d="M239,197.33a3.68,3.68,0,0,0,.21-.46,2.37,2.37,0,0,1-.2.47l-2.79,5.16Z" transform="translate(-0.32 -0.38)" style="fill:#64748b"/><path d="M239.25,194.23a1.83,1.83,0,0,0-.1,1.46,2.05,2.05,0,0,1,.13.37,1.54,1.54,0,0,0-.14-.37,1.89,1.89,0,0,1,.1-1.47,6.88,6.88,0,0,0,.59-1.53A6.2,6.2,0,0,1,239.25,194.23Z" transform="translate(-0.32 -0.38)" style="fill:#64748b"/><path d="M239.37,180.41a3.93,3.93,0,0,1,.79-1,4.37,4.37,0,0,0-.78,1c-.91,1.56-1.75,3.16-2.63,4.74-.18.31-.36.62-.56.94.19-.32.38-.63.55-.95C237.62,183.57,238.46,182,239.37,180.41Z" transform="translate(-0.32 -0.38)" style="fill:#64748b"/><path d="M240.49,179.16l.58-.28-.57.29a1.46,1.46,0,0,0-.33.22A1.36,1.36,0,0,1,240.49,179.16Z" transform="translate(-0.32 -0.38)" style="fill:#64748b"/><path d="M243.56,177.39a1,1,0,0,0,.34-.23A.67.67,0,0,1,243.56,177.39Z" transform="translate(-0.32 -0.38)" style="fill:#64748b"/><path d="M244.49,174.85a1.47,1.47,0,0,1,.53.09A1.68,1.68,0,0,0,244.49,174.85Z" transform="translate(-0.32 -0.38)" style="fill:#64748b"/><path d="M251.35,167.61c-.21-.42-.42-.85-.64-1.28.23.43.44.86.65,1.28l.07.14Z" transform="translate(-0.32 -0.38)" style="fill:#64748b"/><path d="M251.27,174.56l.42-.2-.41.21a7.57,7.57,0,0,1-1.73.7A9.21,9.21,0,0,0,251.27,174.56Z" transform="translate(-0.32 -0.38)" style="fill:#64748b"/><path d="M255.5,169.46c.19.57.36,1.13.54,1.69-.19-.56-.37-1.12-.55-1.69Z" transform="translate(-0.32 -0.38)" style="fill:#64748b"/><path d="M256,171.15c.18.57.37,1.14.56,1.73h0Z" transform="translate(-0.32 -0.38)" style="fill:#64748b"/><path d="M258.51,170.17a1.05,1.05,0,0,1-.5,0A1.2,1.2,0,0,0,258.51,170.17Z" transform="translate(-0.32 -0.38)" style="fill:#64748b"/><path d="M259.27,169.28c0,.13.06.27.1.4l-.15.13.14-.14Z" transform="translate(-0.32 -0.38)" style="fill:#64748b"/><path d="M248.23,118.76a1,1,0,0,0,.38.19A1.23,1.23,0,0,1,248.23,118.76Zm-.07-4.66a.48.48,0,0,0-.17.05l.18,0Zm-4.25,7.24c-.08-.15-.16-.3-.25-.44l.24.44a2.26,2.26,0,0,1,.11.22A1.07,1.07,0,0,0,243.91,121.34Zm-2.16,2.56h0l.41-.17Z" transform="translate(-0.32 -0.38)" style="fill:#64748b"/><path d="M99.49,189.24a16.81,16.81,0,0,0,1.67-.65A16.28,16.28,0,0,1,99.49,189.24Z" transform="translate(-0.32 -0.38)" style="fill:#64748b"/><path d="M110.5,161.92H89.07c.07,1.76.17,3.5.31,5.24-.14-1.74-.25-3.49-.32-5.25Z" transform="translate(-0.32 -0.38)" style="fill:#64748b"/><path d="M240.94,220.62a.91.91,0,0,1,.07.14,1,1,0,0,1-.08-.14Z" transform="translate(-0.32 -0.38)" style="fill:#64748b"/><path d="M241.3,246.25c.41-.87.79-1.76,1.23-2.61-.43.85-.8,1.73-1.21,2.6Z" transform="translate(-0.32 -0.38)" style="fill:#64748b"/><path d="M243.13,239.9c-.56.45-.88.93-.46,1.63a.88.88,0,0,1,.1.22.91.91,0,0,0-.11-.22C242.25,240.83,242.56,240.34,243.13,239.9Z" transform="translate(-0.32 -0.38)" style="fill:#64748b"/><path d="M243.23,233.68A15.68,15.68,0,0,1,244,232C243.72,232.56,243.46,233.11,243.23,233.68Z" transform="translate(-0.32 -0.38)" style="fill:#64748b"/><path d="M244.31,217.57l-.79.71.78-.72Z" transform="translate(-0.32 -0.38)" style="fill:#64748b"/><path d="M246.32,228.44a29.23,29.23,0,0,0-2,3A25.94,25.94,0,0,1,246.32,228.44Z" transform="translate(-0.32 -0.38)" style="fill:#64748b"/><path d="M250.27,152.24a.86.86,0,0,1,.21-.07l-.21.08-.42.2Z" transform="translate(-0.32 -0.38)" style="fill:#64748b"/><path d="M250.38,149.61a0,0,0,0,0,0,0l.67-.31C250.83,149.4,250.61,149.51,250.38,149.61Z" transform="translate(-0.32 -0.38)" style="fill:#64748b"/><path d="M252.41,151a.92.92,0,0,1,0,.29.87.87,0,0,1,0,.19,1.06,1.06,0,0,0,0-.19A1.4,1.4,0,0,0,252.41,151Z" transform="translate(-0.32 -0.38)" style="fill:#64748b"/><path d="M257.13,147.19a1.46,1.46,0,0,0,.87-.28,1.4,1.4,0,0,1-.87.29h-.21Z" transform="translate(-0.32 -0.38)" style="fill:#64748b"/><path d="M258.58,146.18c.05-.09.11-.18.17-.27l-.16.27a1.64,1.64,0,0,1-.14.22C258.49,146.33,258.54,146.26,258.58,146.18Z" transform="translate(-0.32 -0.38)" style="fill:#64748b"/><path d="M262.83,139.61c-.16.58-.3,1.17-.48,1.75.17-.58.32-1.18.47-1.77C262.82,139.6,262.83,139.6,262.83,139.61Z" transform="translate(-0.32 -0.38)" style="fill:#64748b"/><path d="M128.91,153.7A14.53,14.53,0,0,1,129,152,17,17,0,0,0,128.91,153.7Z" transform="translate(-0.32 -0.38)" style="fill:#64748b"/><path d="M129,152c0-.39.08-.71.13-1C129.12,151.24,129.08,151.56,129,152Z" transform="translate(-0.32 -0.38)" style="fill:#64748b"/><path d="M131.2,148.91a1.17,1.17,0,0,1,.26-.1l-.25.11-.63.3Z" transform="translate(-0.32 -0.38)" style="fill:#64748b"/><path d="M132.55,148.68c.45,0,.91.1,1.36.18-.45-.07-.9-.12-1.35-.17l-.24,0Z" transform="translate(-0.32 -0.38)" style="fill:#64748b"/><path d="M115.81,171.12l.15,1.3h0C115.9,172,115.86,171.55,115.81,171.12Z" transform="translate(-0.32 -0.38)" style="fill:#64748b"/><path d="M121.28,162.13h0l-.69-.09Z" transform="translate(-0.32 -0.38)" style="fill:#64748b"/><path d="M226.25,127.19a6.08,6.08,0,0,0-.83,1A5.23,5.23,0,0,1,226.25,127.19Z" transform="translate(-0.32 -0.38)" style="fill:#64748b"/><path d="M226.26,134.1h0l-.59.34Z" transform="translate(-0.32 -0.38)" style="fill:#64748b"/><path d="M225,200.15l.78.54-.78-.53-.82.66Z" transform="translate(-0.32 -0.38)" style="fill:#64748b"/><path d="M115.44,222.9h0l-1.22.94Z" transform="translate(-0.32 -0.38)" style="fill:#64748b"/><path d="M210.31,131.08l-.41.16-.12-.32a2.12,2.12,0,0,1,.41-.12S210.26,131,210.31,131.08Z" transform="translate(-0.32 -0.38)" style="fill:#64748b"/><path d="M211.38,130.12l-.33.32-.39-.35.33-.33Z" transform="translate(-0.32 -0.38)" style="fill:#64748b"/><path d="M211.05,130.44l-.49.16c0-.17.07-.34.1-.51Z" transform="translate(-0.32 -0.38)" style="fill:#64748b"/><path d="M282.13,292.09a2,2,0,0,1-.34.31,2.06,2.06,0,0,1-1.1.37l1.12-1Z" transform="translate(-0.32 -0.38)" style="fill:#64748b"/><path d="M147.4,74.71c.63-1,1.22-2,1.82-3Z" transform="translate(-0.32 -0.38)" style="fill:#64748b"/><path d="M85.94,220.36a1.93,1.93,0,0,1,0,.24,3,3,0,0,1-.63-.53,4.86,4.86,0,0,1-.48-.64c-.29-.45-.53-.94-.84-1.37l-.47-.69c-.3-.47-.6-1-.92-1.49-.17-.26-.34-.53-.51-.82h0a4.6,4.6,0,0,1,.92.22l.19.07a1.23,1.23,0,0,1,.26.12.27.27,0,0,1,.12.06.1.1,0,0,1,.07,0,1.06,1.06,0,0,1,.26.17l.25.22a1,1,0,0,1,.19.23.52.52,0,0,1,.13.17,3.61,3.61,0,0,1,.22.39,3.68,3.68,0,0,1,.17.44c.24.75.63,1.45.92,2.2a1.55,1.55,0,0,1,.07.23,1.86,1.86,0,0,1,.07.34,1.49,1.49,0,0,1,0,.21A1.34,1.34,0,0,1,85.94,220.36Z" transform="translate(-0.32 -0.38)" style="fill:#64748b"/><path d="M248.15,116.76c.4.67.79,1.32,1.24,2a1,1,0,0,1-.78.14,1,1,0,0,1-.38-.19l-.26-.2-.25-.22a1.51,1.51,0,0,0-.34-.24,2.48,2.48,0,0,1-.38-.22,1.67,1.67,0,0,1-.28-.18c-.3-.19-.61-.42-.94-.65l-.33-.24h0l-1.22,2c.61.81,1.18,1.56,1.74,2.32a0,0,0,0,0,0,0,2.32,2.32,0,0,1,.35.68,2.22,2.22,0,0,1-1.43,2.83c-.89.31-1.81.54-2.9.87-.09-.59-.16-1.06-.25-1.62h0l.41-.16c.39-.16.76-.31,1.11-.48a2.14,2.14,0,0,0,.3-.17,1.55,1.55,0,0,0,.24-.19,1.06,1.06,0,0,0,.17-.2.56.56,0,0,0,.09-.17.6.6,0,0,0,.06-.19.15.15,0,0,0,0-.07,1.4,1.4,0,0,0,0-.4.83.83,0,0,0,0-.15l-.06-.16a2.26,2.26,0,0,0-.11-.22l-.24-.44-.09-.15-.3-.49c-.12-.21-.25-.41-.36-.6.07-.31.16-.61.25-.9,0-.11.07-.21.11-.32s.07-.21.11-.31a7.89,7.89,0,0,1,.33-.72l.15-.29.19-.32a6.55,6.55,0,0,1,.39-.53.16.16,0,0,1,.06-.08l.22-.25.24-.24a4.14,4.14,0,0,1,.65-.54l.31-.2.49-.27.4-.18a6.66,6.66,0,0,1,1.35-.41h0l1.25,1.56-1.27,1.08Z" transform="translate(-0.32 -0.38)" style="fill:#64748b"/></g></svg>